G04*
G04 #@! TF.GenerationSoftware,Altium Limited,Altium Designer,23.0.1 (38)*
G04*
G04 Layer_Physical_Order=2*
G04 Layer_Color=16711680*
%FSLAX44Y44*%
%MOMM*%
G71*
G04*
G04 #@! TF.SameCoordinates,B244D3D7-7BF6-4F19-A7E6-06D8B9A342A6*
G04*
G04*
G04 #@! TF.FilePolarity,Positive*
G04*
G01*
G75*
%ADD24C,0.2540*%
%ADD25C,0.3000*%
%ADD26C,0.4572*%
%ADD27C,0.4570*%
%ADD28C,1.6200*%
%ADD29R,1.6200X1.6200*%
%ADD30R,1.6200X1.6200*%
G36*
X1062814Y907853D02*
X1059201Y904240D01*
X941070D01*
Y895633D01*
X940400Y893133D01*
Y889947D01*
X941070Y887447D01*
Y881380D01*
X933322D01*
X932982Y882650D01*
X933633Y883026D01*
X935614Y885007D01*
X937015Y887433D01*
X937740Y890139D01*
Y890270D01*
X927100D01*
Y891540D01*
X925830D01*
Y902180D01*
X925699D01*
X922993Y901455D01*
X921320Y900489D01*
X907480D01*
X905807Y901455D01*
X903101Y902180D01*
X902970D01*
Y891540D01*
X901700D01*
Y890270D01*
X891060D01*
Y890139D01*
X891785Y887433D01*
X893186Y885007D01*
X895167Y883026D01*
X895818Y882650D01*
X895478Y881380D01*
X888400D01*
Y903640D01*
X886460D01*
Y905510D01*
X864870D01*
Y903640D01*
X864200D01*
Y881380D01*
X862330D01*
Y859790D01*
X863600Y858520D01*
X866808D01*
X868870Y856458D01*
X871630Y854865D01*
X874707Y854040D01*
X877893D01*
X880970Y854865D01*
X881022Y854894D01*
X882959Y852957D01*
X881535Y850490D01*
X880710Y847413D01*
Y844227D01*
X880827Y843789D01*
X879930Y842891D01*
X879163Y843096D01*
X875977D01*
X872900Y842271D01*
X870140Y840678D01*
X867888Y838426D01*
X866295Y835666D01*
X865470Y832589D01*
Y829403D01*
X866295Y826326D01*
X867470Y824289D01*
X866737Y823019D01*
X826830D01*
X826615Y823820D01*
X825022Y826580D01*
X822770Y828832D01*
X820010Y830425D01*
X816933Y831250D01*
X813747D01*
X810670Y830425D01*
X807910Y828832D01*
X805658Y826580D01*
X804065Y823820D01*
X803240Y820743D01*
Y817557D01*
X804065Y814480D01*
X805658Y811720D01*
X807910Y809468D01*
X810670Y807875D01*
X813747Y807050D01*
X816933D01*
X820010Y807875D01*
X822770Y809468D01*
X823276Y809974D01*
X823981Y809869D01*
X824273Y809438D01*
X824561Y808546D01*
X823115Y806040D01*
X822290Y802963D01*
Y799777D01*
X823115Y796700D01*
X824708Y793940D01*
X824936Y793712D01*
X824449Y792539D01*
X754634D01*
X752962Y794212D01*
X750658Y795542D01*
X748090Y796230D01*
X745430D01*
X742862Y795542D01*
X740558Y794212D01*
X738678Y792331D01*
X737348Y790028D01*
X736660Y787460D01*
Y784800D01*
X737348Y782232D01*
X738678Y779929D01*
X740558Y778048D01*
X741857Y777298D01*
X741517Y776028D01*
X725170D01*
X725170Y776028D01*
X722718Y775540D01*
X720639Y774151D01*
X720639Y774151D01*
X719372Y772885D01*
X719368Y772882D01*
X709208Y762722D01*
X707819Y760643D01*
X707683Y759961D01*
X706413Y760087D01*
Y909027D01*
X1062328D01*
X1062814Y907853D01*
D02*
G37*
G36*
X1121351Y896700D02*
Y828155D01*
X1116215Y823019D01*
X946525D01*
X946140Y824289D01*
X946872Y824778D01*
X957032Y834938D01*
X958421Y837017D01*
X958909Y839470D01*
Y855868D01*
X959930Y856458D01*
X961992Y858520D01*
X968408D01*
X970470Y856458D01*
X970857Y856235D01*
Y847942D01*
X969200Y846985D01*
X966948Y844732D01*
X965355Y841973D01*
X964530Y838896D01*
Y835710D01*
X965355Y832632D01*
X966948Y829873D01*
X969200Y827620D01*
X971960Y826028D01*
X975037Y825203D01*
X978223D01*
X981300Y826028D01*
X984060Y827620D01*
X986312Y829873D01*
X987905Y832632D01*
X988730Y835710D01*
Y838896D01*
X987905Y841973D01*
X986312Y844732D01*
X984060Y846985D01*
X983673Y847208D01*
Y855501D01*
X985330Y856458D01*
X986966Y858094D01*
X988060Y858520D01*
Y858520D01*
X989311Y859585D01*
X989547Y859573D01*
X990600Y858520D01*
X993808D01*
X995870Y856458D01*
X998630Y854865D01*
X1001707Y854040D01*
X1004893D01*
X1007970Y854865D01*
X1010730Y856458D01*
X1012792Y858520D01*
X1019208D01*
X1021270Y856458D01*
X1024030Y854865D01*
X1027107Y854040D01*
X1030293D01*
X1033370Y854865D01*
X1036130Y856458D01*
X1038192Y858520D01*
X1044608D01*
X1046670Y856458D01*
X1049430Y854865D01*
X1052507Y854040D01*
X1055693D01*
X1058770Y854865D01*
X1061530Y856458D01*
X1063592Y858520D01*
X1070008D01*
X1072070Y856458D01*
X1074830Y854865D01*
X1077907Y854040D01*
X1081093D01*
X1084170Y854865D01*
X1086930Y856458D01*
X1088992Y858520D01*
X1095408D01*
X1097470Y856458D01*
X1100230Y854865D01*
X1103307Y854040D01*
X1106493D01*
X1109570Y854865D01*
X1112330Y856458D01*
X1114392Y858520D01*
X1115060D01*
Y859538D01*
X1116175Y861470D01*
X1117000Y864547D01*
Y867733D01*
X1116175Y870810D01*
X1115060Y872742D01*
Y884938D01*
X1116175Y886870D01*
X1117000Y889947D01*
Y893133D01*
X1116175Y896210D01*
X1115060Y898142D01*
Y900137D01*
X1117914D01*
X1121351Y896700D01*
D02*
G37*
G36*
X945070Y856458D02*
X946091Y855868D01*
Y842125D01*
X939685Y835719D01*
X901617D01*
X901091Y836989D01*
X902492Y838390D01*
X904085Y841150D01*
X904910Y844227D01*
Y847413D01*
X904085Y850490D01*
X902769Y852770D01*
X903173Y853749D01*
X903317Y853982D01*
X903421Y854074D01*
X906370Y854865D01*
X909130Y856458D01*
X911192Y858520D01*
X917608D01*
X919670Y856458D01*
X922430Y854865D01*
X925507Y854040D01*
X928693D01*
X931770Y854865D01*
X934530Y856458D01*
X936592Y858520D01*
X943008D01*
X945070Y856458D01*
D02*
G37*
G36*
X966530Y808931D02*
X965865Y807778D01*
X844662D01*
X844072Y808800D01*
X843844Y809027D01*
X844331Y810201D01*
X965797D01*
X966530Y808931D01*
D02*
G37*
G36*
X1084444Y809027D02*
X1082588Y807172D01*
X1081199Y805093D01*
X1080711Y802640D01*
Y795273D01*
X1077977Y792539D01*
X985853D01*
X985327Y793809D01*
X986312Y794794D01*
X987905Y797554D01*
X988730Y800631D01*
Y803817D01*
X987905Y806894D01*
X986730Y808931D01*
X987463Y810201D01*
X1083958D01*
X1084444Y809027D01*
D02*
G37*
G36*
X966948Y794794D02*
X967933Y793809D01*
X967407Y792539D01*
X844331D01*
X843844Y793712D01*
X844072Y793940D01*
X844662Y794962D01*
X966851D01*
X966948Y794794D01*
D02*
G37*
G36*
X975969Y778451D02*
X974568Y777050D01*
X973978Y776028D01*
X752003D01*
X751663Y777298D01*
X752962Y778048D01*
X754634Y779721D01*
X975443D01*
X975969Y778451D01*
D02*
G37*
G36*
X1231607Y425743D02*
X706413D01*
Y602623D01*
X707683Y602748D01*
X707819Y602067D01*
X709208Y599988D01*
X716828Y592368D01*
X718907Y590979D01*
X721360Y590491D01*
X885790D01*
Y580990D01*
X895869D01*
X896036Y579720D01*
X893220Y578965D01*
X890460Y577372D01*
X888208Y575120D01*
X886615Y572360D01*
X885790Y569283D01*
Y566097D01*
X886615Y563020D01*
X888208Y560260D01*
X890460Y558008D01*
X893220Y556415D01*
X896297Y555590D01*
X899483D01*
X902560Y556415D01*
X905320Y558008D01*
X907572Y560260D01*
X909165Y563020D01*
X909380Y563821D01*
X944210D01*
Y555590D01*
X951171D01*
Y508000D01*
X951659Y505547D01*
X953048Y503468D01*
X960668Y495848D01*
X962747Y494459D01*
X965200Y493971D01*
X1038745D01*
X1043321Y489395D01*
Y468630D01*
X1026830D01*
Y469300D01*
X1024011D01*
X1023525Y470473D01*
X1024412Y471360D01*
X1026005Y474120D01*
X1026830Y477197D01*
Y480383D01*
X1026005Y483460D01*
X1024412Y486220D01*
X1022160Y488472D01*
X1019400Y490065D01*
X1016323Y490890D01*
X1013137D01*
X1010060Y490065D01*
X1007300Y488472D01*
X1005048Y486220D01*
X1003455Y483460D01*
X1002630Y480383D01*
Y477197D01*
X1003455Y474120D01*
X1005048Y471360D01*
X1005935Y470473D01*
X1005449Y469300D01*
X1002630D01*
Y463609D01*
X979282D01*
X979170Y463802D01*
Y468630D01*
X973103D01*
X970603Y469300D01*
X967417D01*
X964917Y468630D01*
X946110D01*
Y469300D01*
X921910D01*
Y445100D01*
X923290D01*
Y444500D01*
X927601D01*
Y443940D01*
X928089Y441487D01*
X929478Y439408D01*
X933998Y434888D01*
X936077Y433499D01*
X938530Y433011D01*
X938530Y433011D01*
X1112408D01*
X1112998Y431990D01*
X1115250Y429738D01*
X1118010Y428145D01*
X1121087Y427320D01*
X1124273D01*
X1127350Y428145D01*
X1130110Y429738D01*
X1132362Y431990D01*
X1133955Y434750D01*
X1134780Y437827D01*
Y441013D01*
X1133955Y444090D01*
X1132362Y446850D01*
X1130110Y449102D01*
X1127350Y450695D01*
X1124273Y451520D01*
X1121087D01*
X1118010Y450695D01*
X1115250Y449102D01*
X1112998Y446850D01*
X1112408Y445829D01*
X1060450D01*
Y451568D01*
X1061005Y452530D01*
X1061830Y455607D01*
Y458793D01*
X1061005Y461870D01*
X1060450Y462832D01*
Y468630D01*
X1056139D01*
Y492050D01*
X1056139Y492050D01*
X1055651Y494503D01*
X1054262Y496582D01*
X1045932Y504912D01*
X1043853Y506301D01*
X1041400Y506789D01*
X967855D01*
X963989Y510655D01*
Y555590D01*
X968410D01*
Y579790D01*
X958331D01*
X958164Y581060D01*
X960980Y581815D01*
X963740Y583408D01*
X965992Y585660D01*
X967585Y588420D01*
X968410Y591497D01*
Y594683D01*
X967585Y597760D01*
X965992Y600520D01*
X963989Y602523D01*
Y623570D01*
X963988Y623575D01*
Y631190D01*
X971550D01*
Y685800D01*
X964624D01*
Y729772D01*
X966280Y730728D01*
X968532Y732980D01*
X970125Y735740D01*
X970950Y738817D01*
Y742003D01*
X970125Y745080D01*
X968532Y747840D01*
X966280Y750092D01*
X963520Y751685D01*
X960443Y752510D01*
X957257D01*
X954180Y751685D01*
X951420Y750092D01*
X949168Y747840D01*
X947575Y745080D01*
X946750Y742003D01*
Y738817D01*
X947575Y735740D01*
X949168Y732980D01*
X951420Y730728D01*
X951806Y730505D01*
Y685800D01*
X935990D01*
Y631190D01*
X951172D01*
Y626224D01*
X942226Y617278D01*
X900210D01*
X899723Y618451D01*
X899952Y618680D01*
X901545Y621440D01*
X902370Y624517D01*
Y627703D01*
X901545Y630780D01*
X899952Y633540D01*
X897700Y635792D01*
X896679Y636382D01*
Y654050D01*
X901700D01*
Y655920D01*
X902370D01*
Y680120D01*
X901700D01*
Y680720D01*
X900430Y681990D01*
X852170D01*
Y656590D01*
X852170Y655320D01*
X851907Y655057D01*
X851906Y655056D01*
X850900Y654050D01*
X853440Y655320D01*
X854710Y654050D01*
X858461D01*
Y642735D01*
X855865Y640139D01*
X842122D01*
X841532Y641160D01*
X839280Y643412D01*
X836520Y645005D01*
X833443Y645830D01*
X830257D01*
X827180Y645005D01*
X824420Y643412D01*
X822168Y641160D01*
X820575Y638400D01*
X819750Y635323D01*
Y632137D01*
X820575Y629060D01*
X822168Y626300D01*
X824420Y624048D01*
X827180Y622455D01*
X830257Y621630D01*
X833443D01*
X836520Y622455D01*
X839280Y624048D01*
X841532Y626300D01*
X842122Y627321D01*
X858520D01*
X860973Y627809D01*
X863052Y629198D01*
X869402Y635548D01*
X870791Y637627D01*
X871279Y640080D01*
Y654050D01*
X883861D01*
Y636382D01*
X882840Y635792D01*
X880588Y633540D01*
X878995Y630780D01*
X878170Y627703D01*
Y624517D01*
X878995Y621440D01*
X880588Y618680D01*
X880817Y618451D01*
X880331Y617278D01*
X784974D01*
X779838Y622414D01*
Y656590D01*
X812800D01*
Y683260D01*
X806786D01*
X806624Y684530D01*
X809105Y687011D01*
X821578D01*
X822168Y685990D01*
X824420Y683738D01*
X827180Y682145D01*
X830257Y681320D01*
X833443D01*
X836520Y682145D01*
X839280Y683738D01*
X841532Y685990D01*
X843125Y688750D01*
X843950Y691827D01*
Y695013D01*
X843125Y698090D01*
X841532Y700850D01*
X839280Y703102D01*
X836520Y704695D01*
X833443Y705520D01*
X830257D01*
X827180Y704695D01*
X824420Y703102D01*
X822168Y700850D01*
X821578Y699829D01*
X806450D01*
X803997Y699341D01*
X801918Y697952D01*
X795568Y691602D01*
X794179Y689523D01*
X793691Y687070D01*
Y683260D01*
X762000D01*
Y675699D01*
X757035D01*
X755709Y677025D01*
Y717296D01*
X757382Y718969D01*
X758712Y721272D01*
X759400Y723840D01*
Y726500D01*
X758712Y729068D01*
X757382Y731372D01*
X755501Y733252D01*
X753198Y734582D01*
X750630Y735270D01*
X747970D01*
X745402Y734582D01*
X743099Y733252D01*
X741218Y731372D01*
X739888Y729068D01*
X739200Y726500D01*
Y723840D01*
X739888Y721272D01*
X741218Y718969D01*
X742891Y717296D01*
Y674370D01*
X743379Y671917D01*
X744768Y669838D01*
X749848Y664758D01*
X751927Y663369D01*
X754380Y662881D01*
X762000D01*
Y656590D01*
X767022D01*
Y619760D01*
X767022Y619760D01*
X767510Y617308D01*
X768899Y615229D01*
X777789Y606339D01*
X777789Y606339D01*
X779868Y604950D01*
X781730Y604579D01*
X781605Y603309D01*
X724015D01*
X720149Y607175D01*
Y755535D01*
X727826Y763212D01*
X973978D01*
X974568Y762190D01*
X976820Y759938D01*
X979580Y758345D01*
X982657Y757520D01*
X985843D01*
X988920Y758345D01*
X991680Y759938D01*
X993932Y762190D01*
X995525Y764950D01*
X996350Y768027D01*
Y771213D01*
X995525Y774290D01*
X993932Y777050D01*
X992531Y778451D01*
X993057Y779721D01*
X1080632D01*
X1083084Y780209D01*
X1085164Y781598D01*
X1091652Y788086D01*
X1093041Y790166D01*
X1093529Y792618D01*
X1093529Y792618D01*
Y799985D01*
X1095173Y801629D01*
X1141297D01*
X1141671Y801255D01*
Y765810D01*
X1129089D01*
Y777128D01*
X1130110Y777718D01*
X1132362Y779970D01*
X1133955Y782730D01*
X1134780Y785807D01*
Y788993D01*
X1133955Y792070D01*
X1132362Y794830D01*
X1130110Y797082D01*
X1127350Y798675D01*
X1124273Y799500D01*
X1121087D01*
X1118010Y798675D01*
X1115250Y797082D01*
X1112998Y794830D01*
X1111405Y792070D01*
X1110580Y788993D01*
Y785807D01*
X1111405Y782730D01*
X1112998Y779970D01*
X1115250Y777718D01*
X1116271Y777128D01*
Y765810D01*
X1109980D01*
Y734060D01*
X1116271D01*
Y716392D01*
X1115250Y715802D01*
X1112998Y713550D01*
X1111405Y710790D01*
X1110580Y707713D01*
Y704527D01*
X1111405Y701450D01*
X1112998Y698690D01*
X1115250Y696438D01*
X1118010Y694845D01*
X1121087Y694020D01*
X1124273D01*
X1127350Y694845D01*
X1130110Y696438D01*
X1132362Y698690D01*
X1133955Y701450D01*
X1134780Y704527D01*
Y707713D01*
X1133955Y710790D01*
X1132362Y713550D01*
X1130110Y715802D01*
X1129089Y716392D01*
Y734060D01*
X1196281D01*
Y718932D01*
X1195260Y718342D01*
X1193008Y716090D01*
X1191415Y713330D01*
X1190590Y710253D01*
Y707067D01*
X1191415Y703990D01*
X1193008Y701230D01*
X1195260Y698978D01*
X1198020Y697385D01*
X1201097Y696560D01*
X1204283D01*
X1207360Y697385D01*
X1210120Y698978D01*
X1212372Y701230D01*
X1213965Y703990D01*
X1214790Y707067D01*
Y710253D01*
X1213965Y713330D01*
X1212372Y716090D01*
X1210120Y718342D01*
X1209099Y718932D01*
Y734060D01*
X1215390D01*
Y765810D01*
X1154489D01*
Y803910D01*
X1154001Y806363D01*
X1152612Y808442D01*
X1148484Y812570D01*
X1146405Y813959D01*
X1143952Y814447D01*
X1127430D01*
X1126944Y815620D01*
X1132292Y820968D01*
X1133681Y823047D01*
X1134169Y825500D01*
Y897890D01*
X1133681Y900343D01*
X1132292Y902422D01*
X1130213Y903811D01*
X1129245Y904004D01*
X1125396Y907853D01*
X1125882Y909027D01*
X1231607D01*
Y425743D01*
D02*
G37*
G36*
X951171Y606439D02*
Y604095D01*
X948880Y602772D01*
X946628Y600520D01*
X945035Y597760D01*
X944210Y594683D01*
Y591497D01*
X945035Y588420D01*
X946628Y585660D01*
X948880Y583408D01*
X951640Y581815D01*
X954456Y581060D01*
X954289Y579790D01*
X944210D01*
Y576639D01*
X906053D01*
X905320Y577372D01*
X902560Y578965D01*
X899744Y579720D01*
X899911Y580990D01*
X909990D01*
Y604462D01*
X944880D01*
X944880Y604462D01*
X947332Y604950D01*
X949411Y606339D01*
X949997Y606925D01*
X951171Y606439D01*
D02*
G37*
%LPC*%
G36*
X928501Y902180D02*
X928370D01*
Y892810D01*
X937740D01*
Y892941D01*
X937015Y895647D01*
X935614Y898073D01*
X933633Y900054D01*
X931207Y901455D01*
X928501Y902180D01*
D02*
G37*
G36*
X900430D02*
X900299D01*
X897593Y901455D01*
X895167Y900054D01*
X893186Y898073D01*
X891785Y895647D01*
X891060Y892941D01*
Y892810D01*
X900430D01*
Y902180D01*
D02*
G37*
G36*
X1152213Y639480D02*
X1149027D01*
X1145950Y638655D01*
X1143190Y637062D01*
X1140938Y634810D01*
X1140348Y633789D01*
X1028812D01*
X1028222Y634810D01*
X1025970Y637062D01*
X1023210Y638655D01*
X1020133Y639480D01*
X1016947D01*
X1013870Y638655D01*
X1011110Y637062D01*
X1008858Y634810D01*
X1007265Y632050D01*
X1006440Y628973D01*
Y625787D01*
X1007265Y622710D01*
X1008858Y619950D01*
X1011110Y617698D01*
X1013870Y616105D01*
X1016947Y615280D01*
X1020133D01*
X1023210Y616105D01*
X1025970Y617698D01*
X1028222Y619950D01*
X1028812Y620971D01*
X1140348D01*
X1140938Y619950D01*
X1143190Y617698D01*
X1145950Y616105D01*
X1149027Y615280D01*
X1152213D01*
X1155290Y616105D01*
X1158050Y617698D01*
X1160302Y619950D01*
X1161895Y622710D01*
X1162720Y625787D01*
Y628973D01*
X1161895Y632050D01*
X1160302Y634810D01*
X1158050Y637062D01*
X1155290Y638655D01*
X1152213Y639480D01*
D02*
G37*
G36*
X1101760Y605190D02*
X1077560D01*
Y602039D01*
X1029243D01*
X1028510Y602772D01*
X1025750Y604365D01*
X1022673Y605190D01*
X1019487D01*
X1016410Y604365D01*
X1013650Y602772D01*
X1012917Y602039D01*
X985520D01*
X983067Y601551D01*
X980988Y600162D01*
X974638Y593812D01*
X973249Y591733D01*
X972761Y589280D01*
Y541132D01*
X971740Y540542D01*
X969488Y538290D01*
X967895Y535530D01*
X967070Y532453D01*
Y529267D01*
X967895Y526190D01*
X969488Y523430D01*
X971740Y521178D01*
X974500Y519585D01*
X977577Y518760D01*
X980763D01*
X983840Y519585D01*
X986600Y521178D01*
X988852Y523430D01*
X990445Y526190D01*
X991270Y529267D01*
Y532453D01*
X990445Y535530D01*
X988852Y538290D01*
X986600Y540542D01*
X985579Y541132D01*
Y586625D01*
X988175Y589221D01*
X1009590D01*
X1009805Y588420D01*
X1011398Y585660D01*
X1013650Y583408D01*
X1016410Y581815D01*
X1019226Y581060D01*
X1019059Y579790D01*
X1008980D01*
Y564047D01*
X1008810Y563792D01*
X1008322Y561340D01*
X1008322Y561340D01*
Y537322D01*
X1007300Y536732D01*
X1005048Y534480D01*
X1003455Y531720D01*
X1002630Y528643D01*
Y525457D01*
X1003455Y522380D01*
X1005048Y519620D01*
X1007300Y517368D01*
X1010060Y515775D01*
X1013137Y514950D01*
X1016323D01*
X1019400Y515775D01*
X1022160Y517368D01*
X1024412Y519620D01*
X1026005Y522380D01*
X1026830Y525457D01*
Y528643D01*
X1026005Y531720D01*
X1024412Y534480D01*
X1022160Y536732D01*
X1021138Y537322D01*
Y555590D01*
X1033180D01*
Y561282D01*
X1042784D01*
X1042784Y561282D01*
X1045236Y561770D01*
X1045782Y562134D01*
X1046890Y561495D01*
X1049967Y560670D01*
X1053153D01*
X1056230Y561495D01*
X1058990Y563088D01*
X1061242Y565340D01*
X1062835Y568100D01*
X1063660Y571177D01*
Y574363D01*
X1062835Y577440D01*
X1061242Y580200D01*
X1058990Y582452D01*
X1056230Y584045D01*
X1053153Y584870D01*
X1049967D01*
X1046890Y584045D01*
X1044130Y582452D01*
X1041878Y580200D01*
X1040285Y577440D01*
X1039460Y574363D01*
Y574098D01*
X1033180D01*
Y579790D01*
X1023101D01*
X1022934Y581060D01*
X1025750Y581815D01*
X1028510Y583408D01*
X1030762Y585660D01*
X1032355Y588420D01*
X1032570Y589221D01*
X1077560D01*
Y580990D01*
X1087639D01*
X1087806Y579720D01*
X1084990Y578965D01*
X1082230Y577372D01*
X1079978Y575120D01*
X1078385Y572360D01*
X1077560Y569283D01*
Y566097D01*
X1078385Y563020D01*
X1079978Y560260D01*
X1082230Y558008D01*
X1084990Y556415D01*
X1088067Y555590D01*
X1091253D01*
X1094330Y556415D01*
X1097090Y558008D01*
X1099342Y560260D01*
X1100935Y563020D01*
X1100980Y563186D01*
X1139982D01*
X1140938Y561530D01*
X1143190Y559278D01*
X1145950Y557685D01*
X1149027Y556860D01*
X1152213D01*
X1155290Y557685D01*
X1158050Y559278D01*
X1160302Y561530D01*
X1161895Y564290D01*
X1162720Y567367D01*
Y570553D01*
X1161895Y573630D01*
X1160302Y576390D01*
X1158050Y578642D01*
X1155290Y580235D01*
X1152213Y581060D01*
X1149027D01*
X1145950Y580235D01*
X1143190Y578642D01*
X1140938Y576390D01*
X1140715Y576004D01*
X1098458D01*
X1097090Y577372D01*
X1094330Y578965D01*
X1091514Y579720D01*
X1091681Y580990D01*
X1101760D01*
Y605190D01*
D02*
G37*
%LPD*%
D24*
X1120140Y905510D02*
X1127760Y897890D01*
X1068070Y905510D02*
X1120140D01*
X1054100Y891540D02*
X1068070Y905510D01*
D25*
X1127133Y898517D02*
X1127760Y897890D01*
X1127132Y898517D02*
X1127133D01*
D26*
X1127760Y825500D02*
Y897890D01*
X1118870Y816610D02*
X1127760Y825500D01*
X1080632Y786130D02*
X1087120Y792618D01*
X746760Y786130D02*
X1080632D01*
X815340Y819150D02*
X817565Y816925D01*
X823517D02*
X823832Y816610D01*
X1118870D01*
X817565Y816925D02*
X823517D01*
X1087120Y802640D02*
X1092518Y808038D01*
X1143952D02*
X1148080Y803910D01*
X1092518Y808038D02*
X1143952D01*
X879256Y829310D02*
X942340D01*
X877570Y830996D02*
X879256Y829310D01*
X890270Y626110D02*
Y668020D01*
X1018540Y627380D02*
X1150620D01*
X1089025Y569595D02*
X1149985D01*
X1087120Y570230D02*
X1087755Y569595D01*
X1149985D02*
X1150620Y568960D01*
X938530Y439420D02*
X1122680D01*
X1087120Y792618D02*
Y802640D01*
X956310Y595630D02*
X957580Y596900D01*
Y623570D01*
X942340Y829310D02*
X952500Y839470D01*
X958215Y671195D02*
Y739775D01*
X958850Y740410D01*
X713740Y758190D02*
X723900Y768350D01*
X713740Y604520D02*
X721360Y596900D01*
X899160D02*
X900430Y595630D01*
X713740Y604520D02*
Y758190D01*
X721360Y596900D02*
X899160D01*
X1122680Y746760D02*
Y787400D01*
Y706120D02*
Y746760D01*
X1148080D02*
Y803910D01*
X901700Y894080D02*
X927100D01*
X831850Y633730D02*
X858520D01*
X864870Y640080D01*
Y668020D01*
X749300Y674370D02*
Y725170D01*
X754380Y669290D02*
X774700D01*
X957580Y670560D02*
X958215Y671195D01*
X1170940Y746760D02*
X1177290Y753110D01*
X1148080Y746760D02*
X1170940D01*
X1202690Y708660D02*
Y753110D01*
X934010Y443940D02*
X938530Y439420D01*
X934010Y443940D02*
Y457200D01*
X1014730D02*
Y478790D01*
X969010Y457200D02*
X1014730D01*
X965200Y500380D02*
X1041400D01*
X957580Y508000D02*
X965200Y500380D01*
X1049730Y457200D02*
Y492050D01*
X1041400Y500380D02*
X1049730Y492050D01*
X979170Y530860D02*
Y589280D01*
X985520Y595630D01*
X1088390D01*
X749300Y674370D02*
X754380Y669290D01*
X800100Y687070D02*
X806450Y693420D01*
X831850D01*
X800100Y669290D02*
Y687070D01*
X952500Y839470D02*
Y868680D01*
X876300D02*
X890866Y854114D01*
X956310Y570230D02*
X957580Y568960D01*
Y508000D02*
Y568960D01*
X900430Y570230D02*
X956310D01*
D27*
X834390Y801370D02*
X975776D01*
X976630Y802224D01*
X1042784Y567690D02*
X1047864Y572770D01*
X1021080Y567690D02*
X1042784D01*
X1047864Y572770D02*
X1051560D01*
X1014730Y527050D02*
Y561340D01*
X1021080Y567690D01*
X976630Y837303D02*
X977265Y837938D01*
Y868045D02*
X977900Y868680D01*
X977265Y837938D02*
Y868045D01*
X782320Y610870D02*
X944880D01*
X773430Y619760D02*
X782320Y610870D01*
X944880D02*
X957580Y623570D01*
X773430Y668020D02*
X774700Y669290D01*
X773430Y619760D02*
Y668020D01*
X957580Y623570D02*
Y645160D01*
X723900Y768350D02*
X725170Y769620D01*
X984250D01*
D28*
X1028700Y891540D02*
D03*
X1003300D02*
D03*
X977900D02*
D03*
X952500D02*
D03*
X927100D02*
D03*
X901700D02*
D03*
Y866140D02*
D03*
X927100D02*
D03*
X952500D02*
D03*
X977900D02*
D03*
X1028700D02*
D03*
X1003300D02*
D03*
X876300D02*
D03*
X1079500Y891540D02*
D03*
X1104900D02*
D03*
X1054100D02*
D03*
Y866140D02*
D03*
X1104900D02*
D03*
X1079500D02*
D03*
X897890Y567690D02*
D03*
X956310Y593090D02*
D03*
X957580Y670560D02*
D03*
X1122680Y746760D02*
D03*
X1202690Y753110D02*
D03*
X1049730Y457200D02*
D03*
X969010D02*
D03*
X864870Y668020D02*
D03*
X774700Y669290D02*
D03*
X1021080Y593090D02*
D03*
X1089660Y567690D02*
D03*
X746760Y786130D02*
D03*
X749300Y725170D02*
D03*
X834390Y801370D02*
D03*
X976630Y802224D02*
D03*
Y837303D02*
D03*
X877570Y830996D02*
D03*
X815340Y819150D02*
D03*
X890270Y626110D02*
D03*
X1150620Y627380D02*
D03*
X1018540D02*
D03*
X1150620Y568960D02*
D03*
X1122680Y439420D02*
D03*
X984250Y769620D02*
D03*
X958850Y740410D02*
D03*
X1122680Y706120D02*
D03*
X831850Y633730D02*
D03*
X1202690Y708660D02*
D03*
X1122680Y787400D02*
D03*
X1014730Y527050D02*
D03*
Y478790D02*
D03*
X1051560Y572770D02*
D03*
X979170Y530860D02*
D03*
X831850Y693420D02*
D03*
X892810Y845820D02*
D03*
D29*
X876300Y891540D02*
D03*
X1148080Y746760D02*
D03*
X1177290Y753110D02*
D03*
X1014730Y457200D02*
D03*
X934010D02*
D03*
X890270Y668020D02*
D03*
X800100Y669290D02*
D03*
D30*
X897890Y593090D02*
D03*
X956310Y567690D02*
D03*
X957580Y645160D02*
D03*
X1021080Y567690D02*
D03*
X1089660Y593090D02*
D03*
M02*
