M48
;Layer_Color=9474304
;FILE_FORMAT=4:4
METRIC,TZ
;TYPE=PLATED
T1F00S00C0.8000
T2F00S00C1.0000
%
T01
X1202690Y708660
X1122680Y706120
Y787400
X984250Y769620
X958850Y740410
X1018540Y627380
X1051560Y572770
X1014730Y527050
X979170Y530860
X1014730Y478790
X1122680Y439420
X1150620Y568960
Y627380
X890270Y626110
X831850Y633730
Y693420
X749300Y725170
X746760Y786130
X815340Y819150
X834390Y801370
X877570Y830996
X892810Y845820
X976630Y837303
Y802224
T02
X1202690Y753110
X1177290
X1148080Y746760
X1122680
X1089660Y593090
Y567690
X1021080
Y593090
X956310
Y567690
X897890
Y593090
X890270Y668020
X864870
X800100Y669290
X957580Y670560
Y645160
X969010Y457200
X934010
X1014730
X1049730
X774700Y669290
X876300Y866140
Y891540
X901700
X927100
X952500
X977900
X1003300
X1028700
Y866140
X1003300
X977900
X952500
X927100
X901700
X1054100
Y891540
X1079500
X1104900
Y866140
X1079500
M30
