%TF.GenerationSoftware,Altium Limited,Altium Designer,23.0.1 (38)*%
G04 Layer_Physical_Order=1*
G04 Layer_Color=255*
%FSLAX45Y45*%
%MOMM*%
%TF.SameCoordinates,3068F0C9-CE29-4D46-B8FD-1C7980A130C9*%
%TF.FilePolarity,Positive*%
%TF.FileFunction,Copper,L1,Top,Signal*%
%TF.Part,Single*%
G01*
G75*
%TA.AperFunction,SMDPad,CuDef*%
%ADD10R,2.35283X0.45000*%
G04:AMPARAMS|DCode=11|XSize=2.35283mm|YSize=0.45mm|CornerRadius=0.225mm|HoleSize=0mm|Usage=FLASHONLY|Rotation=0.000|XOffset=0mm|YOffset=0mm|HoleType=Round|Shape=RoundedRectangle|*
%AMROUNDEDRECTD11*
21,1,2.35283,0.00000,0,0,0.0*
21,1,1.90284,0.45000,0,0,0.0*
1,1,0.45000,0.95142,0.00000*
1,1,0.45000,-0.95142,0.00000*
1,1,0.45000,-0.95142,0.00000*
1,1,0.45000,0.95142,0.00000*
%
%ADD11ROUNDEDRECTD11*%
%ADD12O,1.90000X0.60000*%
%ADD13R,0.50000X0.90000*%
%ADD14R,1.35000X0.85000*%
%ADD15R,0.80000X0.95000*%
%ADD16R,0.90000X0.50000*%
%ADD17R,1.20000X0.90000*%
%ADD18R,0.90000X1.20000*%
%ADD19R,1.00000X1.30000*%
%ADD20R,1.26213X0.95776*%
%ADD21R,0.90000X0.80000*%
%ADD22R,0.95776X1.26213*%
%ADD23R,0.80000X0.90000*%
%TA.AperFunction,Conductor*%
%ADD24C,0.25400*%
%ADD25C,0.45720*%
%ADD26C,0.30000*%
%ADD27C,0.45700*%
%TA.AperFunction,ComponentPad*%
%ADD28C,1.62000*%
%ADD29R,1.62000X1.62000*%
%ADD30R,1.62000X1.62000*%
%TA.AperFunction,ViaPad*%
%ADD31C,1.62000*%
G36*
X12316068Y4257432D02*
X7010400D01*
Y9144000D01*
X12316068D01*
Y4257432D01*
D02*
G37*
%LPC*%
G36*
X11064930Y9036400D02*
X11033070D01*
X11002296Y9028154D01*
X10974704Y9012224D01*
X10952176Y8989696D01*
X10936246Y8962104D01*
X10928000Y8931330D01*
X10916000D01*
X10907754Y8962104D01*
X10891824Y8989696D01*
X10869296Y9012224D01*
X10841704Y9028154D01*
X10810930Y9036400D01*
X10779070D01*
X10748296Y9028154D01*
X10720704Y9012224D01*
X10698176Y8989696D01*
X10682246Y8962104D01*
X10674000Y8931330D01*
X10662000D01*
X10653754Y8962104D01*
X10637824Y8989696D01*
X10615296Y9012224D01*
X10587704Y9028154D01*
X10556930Y9036400D01*
X10525070D01*
X10494296Y9028154D01*
X10466704Y9012224D01*
X10444176Y8989696D01*
X10428246Y8962104D01*
X10420000Y8931330D01*
X10408000D01*
X10399754Y8962104D01*
X10383824Y8989696D01*
X10361296Y9012224D01*
X10333704Y9028154D01*
X10302930Y9036400D01*
X10271070D01*
X10240296Y9028154D01*
X10212704Y9012224D01*
X10190176Y8989696D01*
X10174246Y8962104D01*
X10166000Y8931330D01*
X10154000D01*
X10145754Y8962104D01*
X10129824Y8989696D01*
X10107296Y9012224D01*
X10079704Y9028154D01*
X10048930Y9036400D01*
X10017070D01*
X9986296Y9028154D01*
X9958704Y9012224D01*
X9936176Y8989696D01*
X9920246Y8962104D01*
X9912000Y8931330D01*
X9900000D01*
X9891754Y8962104D01*
X9875824Y8989696D01*
X9853296Y9012224D01*
X9825704Y9028154D01*
X9794930Y9036400D01*
X9763070D01*
X9732296Y9028154D01*
X9704704Y9012224D01*
X9682176Y8989696D01*
X9666246Y8962104D01*
X9658000Y8931330D01*
X9646000D01*
X9637754Y8962104D01*
X9621824Y8989696D01*
X9599296Y9012224D01*
X9571704Y9028154D01*
X9540930Y9036400D01*
X9509070D01*
X9478296Y9028154D01*
X9450704Y9012224D01*
X9428176Y8989696D01*
X9412246Y8962104D01*
X9404000Y8931330D01*
Y8899470D01*
X9412246Y8868696D01*
X9428176Y8841104D01*
X9450704Y8818576D01*
X9478296Y8802646D01*
X9509070Y8794400D01*
Y8782400D01*
X9478296Y8774154D01*
X9450704Y8758224D01*
X9428176Y8735696D01*
X9412246Y8708104D01*
X9404000Y8677330D01*
X9392000D01*
X9383754Y8708104D01*
X9367824Y8735696D01*
X9345296Y8758224D01*
X9317704Y8774154D01*
X9286930Y8782400D01*
X9255070D01*
X9224296Y8774154D01*
X9196704Y8758224D01*
X9174176Y8735696D01*
X9158246Y8708104D01*
X9150000Y8677330D01*
X9138000D01*
X9129754Y8708104D01*
X9113824Y8735696D01*
X9091296Y8758224D01*
X9063704Y8774154D01*
X9032930Y8782400D01*
X9001070D01*
X8970296Y8774154D01*
X8942704Y8758224D01*
X8920176Y8735696D01*
X8904246Y8708104D01*
X8896000Y8677330D01*
X8884000D01*
X8875754Y8708104D01*
X8859824Y8735696D01*
X8837296Y8758224D01*
X8809704Y8774154D01*
X8781541Y8781700D01*
X8783213Y8794400D01*
X8884000D01*
Y9036400D01*
X8642000D01*
Y8794400D01*
X8742787D01*
X8744459Y8781700D01*
X8716296Y8774154D01*
X8688704Y8758224D01*
X8666176Y8735696D01*
X8650246Y8708104D01*
X8642000Y8677330D01*
Y8645470D01*
X8650246Y8614696D01*
X8666176Y8587104D01*
X8688704Y8564576D01*
X8716296Y8548646D01*
X8747070Y8540400D01*
X8778930D01*
X8809704Y8548646D01*
X8837296Y8564576D01*
X8859824Y8587104D01*
X8875754Y8614696D01*
X8884000Y8645470D01*
X8896000D01*
X8904246Y8614696D01*
X8917407Y8591900D01*
X8913370Y8582110D01*
X8911930Y8579780D01*
X8910892Y8578857D01*
X8881396Y8570954D01*
X8853804Y8555024D01*
X8831276Y8532496D01*
X8815346Y8504904D01*
X8807100Y8474130D01*
Y8442270D01*
X8808275Y8437886D01*
X8799295Y8428906D01*
X8791630Y8430960D01*
X8759770D01*
X8728996Y8422714D01*
X8701404Y8406784D01*
X8678876Y8384256D01*
X8662946Y8356664D01*
X8654700Y8325890D01*
Y8294030D01*
X8662946Y8263256D01*
X8678876Y8235664D01*
X8701404Y8213136D01*
X8723559Y8200345D01*
Y7885300D01*
X8719600D01*
Y7853499D01*
X8700040Y7849609D01*
X8681847Y7837453D01*
X8567827Y7723432D01*
X8500914D01*
X8480352Y7719342D01*
X8470908Y7713032D01*
X8405772D01*
X8389190Y7709734D01*
X8387277Y7708456D01*
X8374577Y7715244D01*
Y7896652D01*
X8390604Y7900946D01*
X8418196Y7916876D01*
X8440724Y7939404D01*
X8456654Y7966996D01*
X8464900Y7997770D01*
Y8029630D01*
X8456654Y8060404D01*
X8440724Y8087996D01*
X8418196Y8110524D01*
X8390604Y8126454D01*
X8359830Y8134700D01*
X8327970D01*
X8297196Y8126454D01*
X8269604Y8110524D01*
X8247076Y8087996D01*
X8242891Y8080748D01*
X8230191Y8084151D01*
Y8097172D01*
X8250224Y8117204D01*
X8266154Y8144796D01*
X8274400Y8175570D01*
Y8207430D01*
X8266154Y8238204D01*
X8250224Y8265796D01*
X8227696Y8288324D01*
X8200104Y8304254D01*
X8169330Y8312500D01*
X8137470D01*
X8106696Y8304254D01*
X8079104Y8288324D01*
X8056576Y8265796D01*
X8040646Y8238204D01*
X8032400Y8207430D01*
Y8175570D01*
X8040646Y8144796D01*
X8056576Y8117204D01*
X8079104Y8094676D01*
X8102009Y8081452D01*
Y7303648D01*
X8066794Y7268433D01*
X7952129D01*
X7944071Y7278250D01*
X7944360Y7279700D01*
X7941062Y7296283D01*
X7931668Y7310340D01*
Y7314060D01*
X7941062Y7328117D01*
X7944360Y7344700D01*
X7941062Y7361283D01*
X7931668Y7375340D01*
Y7379060D01*
X7941062Y7393117D01*
X7944360Y7409700D01*
X7941062Y7426283D01*
X7931668Y7440340D01*
Y7444060D01*
X7941062Y7458117D01*
X7944360Y7474700D01*
X7941062Y7491283D01*
X7931668Y7505340D01*
Y7509060D01*
X7941062Y7523117D01*
X7944360Y7539700D01*
X7941062Y7556283D01*
X7931668Y7570340D01*
Y7574060D01*
X7941062Y7588117D01*
X7944360Y7604700D01*
X7942411Y7614500D01*
X7943528Y7627200D01*
X7943528Y7627200D01*
X7943527Y7627201D01*
Y7712200D01*
X7668244D01*
Y7627200D01*
X7668244Y7627200D01*
X7669361Y7614500D01*
X7667412Y7604700D01*
X7670710Y7588117D01*
X7680104Y7574060D01*
Y7570340D01*
X7670710Y7556283D01*
X7667412Y7539700D01*
X7667700Y7538250D01*
X7659643Y7528432D01*
X7560906D01*
X7544391Y7544948D01*
Y7766972D01*
X7564424Y7787004D01*
X7580354Y7814596D01*
X7588600Y7845370D01*
Y7877230D01*
X7580354Y7908004D01*
X7564424Y7935596D01*
X7541896Y7958124D01*
X7514304Y7974054D01*
X7483530Y7982300D01*
X7451670D01*
X7420896Y7974054D01*
X7393304Y7958124D01*
X7370776Y7935596D01*
X7354846Y7908004D01*
X7346600Y7877230D01*
Y7845370D01*
X7354846Y7814596D01*
X7370776Y7787004D01*
X7393304Y7764476D01*
X7416209Y7751252D01*
Y7518400D01*
X7421087Y7493873D01*
X7432941Y7476132D01*
X7428301Y7463432D01*
X7411652D01*
X7406673Y7466759D01*
X7382147Y7471638D01*
X7357620Y7466759D01*
X7336827Y7452866D01*
X7269881Y7385919D01*
X7255987Y7365127D01*
X7251109Y7340600D01*
Y5410200D01*
X7255987Y5385673D01*
X7269881Y5364881D01*
X7371481Y5263281D01*
X7392273Y5249387D01*
X7416800Y5244509D01*
X9688984D01*
X9694876Y5234304D01*
X9717404Y5211776D01*
X9744996Y5195846D01*
X9775770Y5187600D01*
X9807630D01*
X9838404Y5195846D01*
X9865996Y5211776D01*
X9888524Y5234304D01*
X9904454Y5261896D01*
X9912700Y5292670D01*
Y5324530D01*
X9904454Y5355304D01*
X9888524Y5382896D01*
X9865996Y5405424D01*
X9838404Y5421354D01*
X9807630Y5429600D01*
X9775770D01*
X9744996Y5421354D01*
X9717404Y5405424D01*
X9694876Y5382896D01*
X9688984Y5372691D01*
X7443348D01*
X7379291Y5436748D01*
Y7181249D01*
X7391991Y7184652D01*
X7396176Y7177404D01*
X7418704Y7154876D01*
X7446296Y7138946D01*
X7477070Y7130700D01*
X7508930D01*
X7539704Y7138946D01*
X7567296Y7154876D01*
X7589824Y7177404D01*
X7605754Y7204996D01*
X7614000Y7235770D01*
Y7267630D01*
X7610446Y7280892D01*
X7618178Y7290968D01*
X7659643D01*
X7667700Y7281150D01*
X7667412Y7279700D01*
X7670710Y7263117D01*
X7680104Y7249060D01*
Y7245340D01*
X7670710Y7231283D01*
X7667412Y7214700D01*
X7670710Y7198117D01*
X7680104Y7184060D01*
X7694161Y7174666D01*
X7710744Y7171368D01*
X7775880D01*
X7785323Y7165058D01*
X7805886Y7160968D01*
X8070971D01*
X8079173Y7155487D01*
X8103700Y7150609D01*
X8128227Y7155487D01*
X8149020Y7169381D01*
X8211419Y7231781D01*
X8225313Y7252573D01*
X8230191Y7277100D01*
Y7943249D01*
X8242891Y7946652D01*
X8247076Y7939404D01*
X8262423Y7924058D01*
Y7664539D01*
X8266691Y7643079D01*
X8278847Y7624887D01*
X8335816Y7567918D01*
X8354009Y7555762D01*
X8359896Y7554591D01*
X8359460Y7552400D01*
X8370882D01*
X8375469Y7551488D01*
X8486484D01*
X8500914Y7548617D01*
Y7527000D01*
X8359460D01*
X8360652Y7521010D01*
X8369879Y7507200D01*
X8360652Y7493390D01*
X8359460Y7487400D01*
X8642368D01*
X8641177Y7493390D01*
X8631949Y7507200D01*
X8641177Y7521010D01*
X8644894Y7539700D01*
X8644606Y7541150D01*
X8652663Y7550968D01*
X8673542D01*
X8694105Y7555058D01*
X8706900Y7563607D01*
X8719600Y7557653D01*
Y7545200D01*
X8865219D01*
Y7527200D01*
X8849300D01*
Y7357200D01*
X8867500D01*
Y7329406D01*
X8843694D01*
Y7290381D01*
X8822324D01*
X8793353Y7319353D01*
X8775160Y7331509D01*
X8753700Y7335777D01*
X8646711D01*
X8639388Y7344700D01*
X8636090Y7361283D01*
X8627979Y7373421D01*
X8630590Y7375166D01*
X8641177Y7391010D01*
X8642368Y7397000D01*
X8508142D01*
X8500914Y7398438D01*
X8493687Y7397000D01*
X8359460D01*
X8360652Y7391010D01*
X8371239Y7375166D01*
X8373849Y7373421D01*
X8365738Y7361283D01*
X8362440Y7344700D01*
X8365738Y7328117D01*
X8375132Y7314060D01*
Y7310340D01*
X8365738Y7296283D01*
X8362440Y7279700D01*
X8365738Y7263117D01*
X8375132Y7249060D01*
Y7245340D01*
X8365738Y7231283D01*
X8362440Y7214700D01*
X8365738Y7198117D01*
X8375132Y7184060D01*
X8389190Y7174666D01*
X8405772Y7171368D01*
X8470908D01*
X8480352Y7165058D01*
X8500914Y7160968D01*
X8521477Y7165058D01*
X8530920Y7171368D01*
X8596056D01*
X8612639Y7174666D01*
X8626696Y7184060D01*
X8636090Y7198117D01*
X8639388Y7214700D01*
X8646711Y7223623D01*
X8730472D01*
X8746799Y7207295D01*
X8747897Y7201777D01*
X8761788Y7180988D01*
X8782577Y7167097D01*
X8807100Y7162219D01*
X8843694D01*
Y7123194D01*
X8874667D01*
X8878458Y7104137D01*
X8890105Y7086705D01*
X8952406Y7024405D01*
X8969838Y7012758D01*
X8990400Y7008667D01*
X10023000D01*
Y6997400D01*
X10193000D01*
Y7008667D01*
X10540700D01*
Y6976200D01*
X10670700D01*
Y7146200D01*
X10658232D01*
Y7224309D01*
X10670932Y7226835D01*
X10675256Y7216398D01*
X10686476Y7201776D01*
X10701098Y7190555D01*
X10718127Y7183502D01*
X10736400Y7181096D01*
X10861015D01*
X10880968Y7161143D01*
Y7114932D01*
X10820700D01*
Y7146200D01*
X10690700D01*
Y6976200D01*
X10820700D01*
Y7007468D01*
X10841896D01*
X10849700Y6998000D01*
Y6868000D01*
X11019700D01*
X11020668Y6855701D01*
Y6448457D01*
X11001343Y6429132D01*
X10566400D01*
X10545837Y6425042D01*
X10528405Y6413395D01*
X10477605Y6362595D01*
X10465958Y6345163D01*
X10461868Y6324600D01*
Y5836396D01*
X10441304Y5824524D01*
X10418776Y5801996D01*
X10402846Y5774404D01*
X10394600Y5743630D01*
Y5711770D01*
X10402846Y5680996D01*
X10418776Y5653404D01*
X10441304Y5630876D01*
X10468896Y5614946D01*
X10499670Y5606700D01*
X10531530D01*
X10562304Y5614946D01*
X10589896Y5630876D01*
X10612424Y5653404D01*
X10628354Y5680996D01*
X10636600Y5711770D01*
Y5743630D01*
X10628354Y5774404D01*
X10612424Y5801996D01*
X10589896Y5824524D01*
X10569332Y5836396D01*
Y6302343D01*
X10588657Y6321668D01*
X11023600D01*
X11044163Y6325758D01*
X11061595Y6337405D01*
X11112395Y6388205D01*
X11124042Y6405637D01*
X11128132Y6426200D01*
Y6970787D01*
X11140832Y6976048D01*
X11152504Y6964376D01*
X11173068Y6952504D01*
Y4591796D01*
X11152504Y4579924D01*
X11129976Y4557396D01*
X11114046Y4529804D01*
X11105800Y4499030D01*
Y4467170D01*
X11114046Y4436396D01*
X11129976Y4408804D01*
X11152504Y4386276D01*
X11180096Y4370346D01*
X11210870Y4362100D01*
X11242730D01*
X11273504Y4370346D01*
X11301096Y4386276D01*
X11323624Y4408804D01*
X11339554Y4436396D01*
X11347800Y4467170D01*
Y4499030D01*
X11339554Y4529804D01*
X11323624Y4557396D01*
X11301096Y4579924D01*
X11280532Y4591796D01*
Y6952504D01*
X11301096Y6964376D01*
X11323624Y6986904D01*
X11330497Y6998809D01*
X11406200D01*
Y6979600D01*
X11586587D01*
X11595600Y6970700D01*
X11595600Y6966900D01*
Y6939600D01*
X11406200D01*
Y6769600D01*
X11442109D01*
Y6376516D01*
X11431904Y6370624D01*
X11409376Y6348096D01*
X11393446Y6320504D01*
X11385200Y6289730D01*
Y6257870D01*
X11393446Y6227096D01*
X11409376Y6199504D01*
X11431904Y6176976D01*
X11442109Y6171084D01*
Y5792316D01*
X11431904Y5786424D01*
X11409376Y5763896D01*
X11393446Y5736304D01*
X11385200Y5705530D01*
Y5673670D01*
X11393446Y5642896D01*
X11409376Y5615304D01*
X11431904Y5592776D01*
X11459496Y5576846D01*
X11490270Y5568600D01*
X11522130D01*
X11552904Y5576846D01*
X11580496Y5592776D01*
X11603024Y5615304D01*
X11618954Y5642896D01*
X11627200Y5673670D01*
Y5705530D01*
X11618954Y5736304D01*
X11603024Y5763896D01*
X11580496Y5786424D01*
X11570291Y5792316D01*
Y6171084D01*
X11580496Y6176976D01*
X11603024Y6199504D01*
X11618954Y6227096D01*
X11627200Y6257870D01*
Y6289730D01*
X11618954Y6320504D01*
X11603024Y6348096D01*
X11580496Y6370624D01*
X11570291Y6376516D01*
Y6769600D01*
X11606200D01*
Y6770700D01*
X11765600D01*
Y6970700D01*
X11615213D01*
X11606200Y6979600D01*
X11606200Y6983400D01*
Y7149600D01*
X11406200D01*
Y7126991D01*
X11328534D01*
X11323624Y7135496D01*
X11301096Y7158024D01*
X11273504Y7173954D01*
X11242730Y7182200D01*
X11210870D01*
X11180096Y7173954D01*
X11152504Y7158024D01*
X11140832Y7146352D01*
X11128132Y7151613D01*
Y7327900D01*
X11124042Y7348463D01*
X11112395Y7365895D01*
X11061595Y7416695D01*
X11044163Y7428342D01*
X11023600Y7432432D01*
X10919009D01*
X10913834Y7445106D01*
X10913843Y7445152D01*
X10920798Y7451968D01*
X10972800D01*
X10993363Y7456058D01*
X11010795Y7467705D01*
X11048895Y7505805D01*
X11060542Y7523237D01*
X11064632Y7543800D01*
Y7800943D01*
X11083957Y7820268D01*
X11118104D01*
X11129976Y7799704D01*
X11152504Y7777176D01*
X11180096Y7761246D01*
X11210870Y7753000D01*
X11242730D01*
X11273504Y7761246D01*
X11301096Y7777176D01*
X11323624Y7799704D01*
X11339554Y7827296D01*
X11347800Y7858070D01*
Y7889930D01*
X11339554Y7920704D01*
X11323624Y7948296D01*
X11301096Y7970824D01*
X11273504Y7986754D01*
X11242730Y7995000D01*
X11210870D01*
X11180096Y7986754D01*
X11152504Y7970824D01*
X11129976Y7948296D01*
X11118104Y7927732D01*
X11061700D01*
X11041137Y7923642D01*
X11023705Y7911995D01*
X10972905Y7861195D01*
X10961258Y7843763D01*
X10957168Y7823200D01*
Y7566057D01*
X10950543Y7559432D01*
X10911362D01*
X10908885Y7561333D01*
Y7577067D01*
X10916324Y7582776D01*
X10927545Y7597398D01*
X10934598Y7614426D01*
X10937004Y7632700D01*
X10934598Y7650974D01*
X10927545Y7668002D01*
X10916324Y7682624D01*
X10901702Y7693845D01*
X10884673Y7700898D01*
X10866400Y7703304D01*
X10855132D01*
Y7751494D01*
X10898106D01*
Y7927270D01*
X10883507D01*
Y7972118D01*
X10795000D01*
X10706493D01*
Y7927270D01*
X10691894D01*
Y7890832D01*
X10651400D01*
Y7917100D01*
X10647594D01*
X10636800Y7921700D01*
X10636800Y7929800D01*
Y7974400D01*
X10566400D01*
X10496000D01*
Y7929800D01*
X10496000Y7921700D01*
X10485206Y7917100D01*
X10481400D01*
Y7757100D01*
X10651400D01*
Y7783367D01*
X10691894D01*
Y7751494D01*
X10747668D01*
Y7703304D01*
X10736400D01*
X10718127Y7700898D01*
X10701098Y7693845D01*
X10691438Y7686432D01*
X10655300D01*
X10634737Y7682342D01*
X10617305Y7670695D01*
X10566505Y7619895D01*
X10554858Y7602463D01*
X10550768Y7581900D01*
Y7146200D01*
X10540700D01*
Y7116132D01*
X10193000D01*
Y7127400D01*
X10023000D01*
Y7116132D01*
X9029245D01*
X9019470Y7123194D01*
Y7137793D01*
X9064318D01*
Y7226300D01*
Y7314807D01*
X9019470D01*
Y7329406D01*
X8995663D01*
Y7357200D01*
X9009300D01*
Y7361006D01*
X9013900Y7371800D01*
X9022000Y7371800D01*
X9066600D01*
Y7442200D01*
Y7512600D01*
X9022000D01*
X9013900Y7512600D01*
X9009300Y7523394D01*
Y7527200D01*
X8993381D01*
Y7545200D01*
X9009600D01*
Y7720200D01*
X9009600D01*
Y7885300D01*
X8993691D01*
Y8356351D01*
X9002396Y8361376D01*
X9024924Y8383904D01*
X9040854Y8411496D01*
X9049100Y8442270D01*
Y8474130D01*
X9040854Y8504904D01*
X9027693Y8527700D01*
X9031730Y8537490D01*
X9033170Y8539820D01*
X9034208Y8540743D01*
X9063704Y8548646D01*
X9091296Y8564576D01*
X9113824Y8587104D01*
X9129754Y8614696D01*
X9138000Y8645470D01*
X9150000D01*
X9158246Y8614696D01*
X9174176Y8587104D01*
X9196704Y8564576D01*
X9224296Y8548646D01*
X9255070Y8540400D01*
X9286930D01*
X9317704Y8548646D01*
X9345296Y8564576D01*
X9367824Y8587104D01*
X9383754Y8614696D01*
X9392000Y8645470D01*
X9404000D01*
X9412246Y8614696D01*
X9428176Y8587104D01*
X9450704Y8564576D01*
X9478296Y8548646D01*
X9509070Y8540400D01*
X9540930D01*
X9571704Y8548646D01*
X9599296Y8564576D01*
X9621824Y8587104D01*
X9637754Y8614696D01*
X9646000Y8645470D01*
X9658000D01*
X9666246Y8614696D01*
X9682176Y8587104D01*
X9704704Y8564576D01*
X9732296Y8548646D01*
X9763070Y8540400D01*
X9794930D01*
X9825704Y8548646D01*
X9853296Y8564576D01*
X9875824Y8587104D01*
X9891754Y8614696D01*
X9900000Y8645470D01*
X9912000D01*
X9920246Y8614696D01*
X9936176Y8587104D01*
X9958704Y8564576D01*
X9986296Y8548646D01*
X10017070Y8540400D01*
X10048930D01*
X10079704Y8548646D01*
X10107296Y8564576D01*
X10129824Y8587104D01*
X10145754Y8614696D01*
X10154000Y8645470D01*
X10166000D01*
X10174246Y8614696D01*
X10190176Y8587104D01*
X10212704Y8564576D01*
X10240296Y8548646D01*
X10271070Y8540400D01*
X10302930D01*
X10333704Y8548646D01*
X10361296Y8564576D01*
X10383824Y8587104D01*
X10399754Y8614696D01*
X10408000Y8645470D01*
X10420000D01*
X10428246Y8614696D01*
X10444176Y8587104D01*
X10466704Y8564576D01*
X10494296Y8548646D01*
X10525070Y8540400D01*
X10556930D01*
X10587704Y8548646D01*
X10615296Y8564576D01*
X10637824Y8587104D01*
X10653754Y8614696D01*
X10662000Y8645470D01*
X10674000D01*
X10682246Y8614696D01*
X10698176Y8587104D01*
X10720704Y8564576D01*
X10748296Y8548646D01*
X10779070Y8540400D01*
X10810930D01*
X10841704Y8548646D01*
X10869296Y8564576D01*
X10891824Y8587104D01*
X10907754Y8614696D01*
X10916000Y8645470D01*
X10928000D01*
X10936246Y8614696D01*
X10952176Y8587104D01*
X10974704Y8564576D01*
X11002296Y8548646D01*
X11033070Y8540400D01*
X11064930D01*
X11095704Y8548646D01*
X11123296Y8564576D01*
X11145824Y8587104D01*
X11161754Y8614696D01*
X11170000Y8645470D01*
Y8677330D01*
X11161754Y8708104D01*
X11145824Y8735696D01*
X11123296Y8758224D01*
X11095704Y8774154D01*
X11064930Y8782400D01*
Y8794400D01*
X11095704Y8802646D01*
X11123296Y8818576D01*
X11145824Y8841104D01*
X11161754Y8868696D01*
X11170000Y8899470D01*
Y8931330D01*
X11161754Y8962104D01*
X11145824Y8989696D01*
X11123296Y9012224D01*
X11095704Y9028154D01*
X11064930Y9036400D01*
D02*
G37*
G36*
X9285008Y9021800D02*
X9283700D01*
Y8928100D01*
X9377400D01*
Y8929408D01*
X9370149Y8956469D01*
X9356141Y8980731D01*
X9336331Y9000541D01*
X9312069Y9014549D01*
X9285008Y9021800D01*
D02*
G37*
G36*
X9031008D02*
X9029700D01*
Y8928100D01*
X9123400D01*
Y8929408D01*
X9116149Y8956469D01*
X9102141Y8980731D01*
X9082331Y9000541D01*
X9058069Y9014549D01*
X9031008Y9021800D01*
D02*
G37*
G36*
X9258300D02*
X9256992D01*
X9229931Y9014549D01*
X9205669Y9000541D01*
X9185859Y8980731D01*
X9171851Y8956469D01*
X9164600Y8929408D01*
Y8928100D01*
X9258300D01*
Y9021800D01*
D02*
G37*
G36*
X9004300D02*
X9002992D01*
X8975931Y9014549D01*
X8951669Y9000541D01*
X8931859Y8980731D01*
X8917851Y8956469D01*
X8910600Y8929408D01*
Y8928100D01*
X9004300D01*
Y9021800D01*
D02*
G37*
G36*
X9377400Y8902700D02*
X9283700D01*
Y8809000D01*
X9285008D01*
X9312069Y8816251D01*
X9336331Y8830259D01*
X9356141Y8850069D01*
X9370149Y8874331D01*
X9377400Y8901392D01*
Y8902700D01*
D02*
G37*
G36*
X9258300D02*
X9164600D01*
Y8901392D01*
X9171851Y8874331D01*
X9185859Y8850069D01*
X9205669Y8830259D01*
X9229931Y8816251D01*
X9256992Y8809000D01*
X9258300D01*
Y8902700D01*
D02*
G37*
G36*
X9123400D02*
X9029700D01*
Y8809000D01*
X9031008D01*
X9058069Y8816251D01*
X9082331Y8830259D01*
X9102141Y8850069D01*
X9116149Y8874331D01*
X9123400Y8901392D01*
Y8902700D01*
D02*
G37*
G36*
X9004300D02*
X8910600D01*
Y8901392D01*
X8917851Y8874331D01*
X8931859Y8850069D01*
X8951669Y8830259D01*
X8975931Y8816251D01*
X9002992Y8809000D01*
X9004300D01*
Y8902700D01*
D02*
G37*
G36*
X10636800Y8052500D02*
X10579100D01*
Y7999800D01*
X10636800D01*
Y8052500D01*
D02*
G37*
G36*
X10553700D02*
X10496000D01*
Y7999800D01*
X10553700D01*
Y8052500D01*
D02*
G37*
G36*
X10883507Y8058107D02*
X10807700D01*
Y7997518D01*
X10883507D01*
Y8058107D01*
D02*
G37*
G36*
X10782300D02*
X10706493D01*
Y7997518D01*
X10782300D01*
Y8058107D01*
D02*
G37*
G36*
X9782230Y8494028D02*
X9750370D01*
X9719596Y8485783D01*
X9692004Y8469853D01*
X9669476Y8447324D01*
X9653546Y8419733D01*
X9645300Y8388959D01*
Y8357099D01*
X9653546Y8326324D01*
X9669476Y8298733D01*
X9692004Y8276205D01*
X9702219Y8270307D01*
Y8124961D01*
X9692004Y8119064D01*
X9669476Y8096536D01*
X9653546Y8068944D01*
X9645300Y8038170D01*
Y8006310D01*
X9653546Y7975536D01*
X9669476Y7947944D01*
X9692004Y7925416D01*
X9719596Y7909486D01*
X9750370Y7901240D01*
X9782230D01*
X9813004Y7909486D01*
X9840596Y7925416D01*
X9863124Y7947944D01*
X9879054Y7975536D01*
X9887300Y8006310D01*
Y8038170D01*
X9879054Y8068944D01*
X9863124Y8096536D01*
X9840596Y8119064D01*
X9830381Y8124961D01*
Y8270307D01*
X9840596Y8276205D01*
X9863124Y8298733D01*
X9879054Y8326324D01*
X9887300Y8357099D01*
Y8388959D01*
X9879054Y8419733D01*
X9863124Y8447324D01*
X9840596Y8469853D01*
X9813004Y8485783D01*
X9782230Y8494028D01*
D02*
G37*
G36*
X10179600Y7605700D02*
X10121900D01*
Y7568000D01*
X10179600D01*
Y7605700D01*
D02*
G37*
G36*
X10096500D02*
X10038800D01*
Y7568000D01*
X10096500D01*
Y7605700D01*
D02*
G37*
G36*
X12042830Y7652100D02*
X12010970D01*
X11980196Y7643854D01*
X11952604Y7627924D01*
X11930076Y7605396D01*
X11914146Y7577804D01*
X11906600Y7549641D01*
X11893900Y7551313D01*
Y7652100D01*
X11651900D01*
Y7494690D01*
X11650187Y7492127D01*
X11645309Y7467600D01*
X11650187Y7443073D01*
X11651900Y7440510D01*
Y7410100D01*
X11682310D01*
X11684873Y7408387D01*
X11709400Y7403509D01*
X11733927Y7408387D01*
X11736490Y7410100D01*
X11893900D01*
Y7510887D01*
X11906600Y7512559D01*
X11914146Y7484396D01*
X11930076Y7456804D01*
X11952604Y7434276D01*
X11980196Y7418346D01*
X12010970Y7410100D01*
X12042830D01*
X12073604Y7418346D01*
X12101196Y7434276D01*
X12123724Y7456804D01*
X12139654Y7484396D01*
X12147900Y7515170D01*
Y7547030D01*
X12139654Y7577804D01*
X12123724Y7605396D01*
X12101196Y7627924D01*
X12073604Y7643854D01*
X12042830Y7652100D01*
D02*
G37*
G36*
X10179600Y7542600D02*
X10121900D01*
Y7504900D01*
X10179600D01*
Y7542600D01*
D02*
G37*
G36*
X11601800Y7588600D02*
X11359800D01*
Y7487813D01*
X11347100Y7486141D01*
X11339554Y7514304D01*
X11323624Y7541896D01*
X11301096Y7564424D01*
X11273504Y7580354D01*
X11242730Y7588600D01*
X11210870D01*
X11180096Y7580354D01*
X11152504Y7564424D01*
X11129976Y7541896D01*
X11114046Y7514304D01*
X11105800Y7483530D01*
Y7451670D01*
X11114046Y7420896D01*
X11129976Y7393304D01*
X11152504Y7370776D01*
X11180096Y7354846D01*
X11210870Y7346600D01*
X11242730D01*
X11273504Y7354846D01*
X11301096Y7370776D01*
X11323624Y7393304D01*
X11339554Y7420896D01*
X11347100Y7449059D01*
X11359800Y7447387D01*
Y7346600D01*
X11601800D01*
Y7588600D01*
D02*
G37*
G36*
X9858430Y7817200D02*
X9826570D01*
X9795796Y7808954D01*
X9768204Y7793024D01*
X9745676Y7770496D01*
X9729746Y7742904D01*
X9721500Y7712130D01*
Y7680270D01*
X9729746Y7649496D01*
X9745676Y7621904D01*
X9768204Y7599376D01*
X9795796Y7583446D01*
X9826570Y7575200D01*
X9858430D01*
X9889204Y7583446D01*
X9916796Y7599376D01*
X9939324Y7621904D01*
X9945216Y7632109D01*
X10155620D01*
X10180147Y7636987D01*
X10183729Y7639381D01*
X10196613Y7626498D01*
X10198202Y7614426D01*
X10205255Y7597398D01*
X10216476Y7582776D01*
X10223915Y7577067D01*
Y7561333D01*
X10216476Y7555624D01*
X10205255Y7541002D01*
X10198202Y7523974D01*
X10195796Y7505700D01*
X10198202Y7487426D01*
X10201244Y7480082D01*
X10191550Y7470300D01*
X10183753Y7470300D01*
X10032900D01*
Y7494644D01*
X10038801Y7504899D01*
X10045135Y7504900D01*
X10096500D01*
Y7542600D01*
X10038800D01*
Y7519356D01*
X10032899Y7509101D01*
X10026565Y7509100D01*
X9702900D01*
Y7478538D01*
X9700969Y7476699D01*
X9685324Y7478396D01*
X9662796Y7500924D01*
X9635204Y7516854D01*
X9604430Y7525100D01*
X9572570D01*
X9541796Y7516854D01*
X9514204Y7500924D01*
X9491676Y7478396D01*
X9475746Y7450804D01*
X9467500Y7420030D01*
Y7388170D01*
X9475746Y7357396D01*
X9491676Y7329804D01*
X9514204Y7307276D01*
X9541796Y7291346D01*
X9572570Y7283100D01*
X9604430D01*
X9635204Y7291346D01*
X9662796Y7307276D01*
X9685324Y7329804D01*
X9700969Y7331501D01*
X9702900Y7329662D01*
Y7299100D01*
X10032899D01*
Y7299100D01*
X10045109Y7297915D01*
Y7277400D01*
X10023000D01*
Y7147400D01*
X10193000D01*
Y7277400D01*
X10173291D01*
Y7324968D01*
X10221438D01*
X10231098Y7317555D01*
X10238322Y7314563D01*
X10239476Y7300339D01*
X10226459Y7291641D01*
X10214215Y7273316D01*
X10212441Y7264400D01*
X10331400D01*
X10450359D01*
X10448585Y7273316D01*
X10436341Y7291641D01*
X10423324Y7300339D01*
X10424478Y7314563D01*
X10431702Y7317555D01*
X10446324Y7328776D01*
X10457544Y7343398D01*
X10464598Y7360426D01*
X10467004Y7378700D01*
X10464598Y7396974D01*
X10457544Y7414002D01*
X10446324Y7428624D01*
X10438885Y7434333D01*
Y7450067D01*
X10446324Y7455776D01*
X10457544Y7470398D01*
X10464598Y7487426D01*
X10467004Y7505700D01*
X10464598Y7523974D01*
X10457544Y7541002D01*
X10446324Y7555624D01*
X10438885Y7561333D01*
Y7577067D01*
X10446324Y7582776D01*
X10457544Y7597398D01*
X10464598Y7614426D01*
X10467004Y7632700D01*
X10464598Y7650974D01*
X10457544Y7668002D01*
X10446324Y7682624D01*
X10431702Y7693845D01*
X10414673Y7700898D01*
X10396400Y7703304D01*
X10271785D01*
X10240894Y7734195D01*
X10223462Y7745842D01*
X10202900Y7749932D01*
X10188348D01*
X10180147Y7755413D01*
X10155620Y7760291D01*
X9945216D01*
X9939324Y7770496D01*
X9916796Y7793024D01*
X9889204Y7808954D01*
X9858430Y7817200D01*
D02*
G37*
G36*
X9092000Y7512600D02*
Y7454900D01*
X9144700D01*
Y7512600D01*
X9092000D01*
D02*
G37*
G36*
X8642368Y7462000D02*
X8359460D01*
X8360652Y7456010D01*
X8369880Y7442200D01*
X8360652Y7428390D01*
X8359460Y7422400D01*
X8642368D01*
X8641177Y7428390D01*
X8631949Y7442200D01*
X8641177Y7456010D01*
X8642368Y7462000D01*
D02*
G37*
G36*
X9144700Y7429500D02*
X9092000D01*
Y7371800D01*
X9144700D01*
Y7429500D01*
D02*
G37*
G36*
X9150307Y7314807D02*
X9089718D01*
Y7239000D01*
X9150307D01*
Y7314807D01*
D02*
G37*
G36*
X10450359Y7239000D02*
X10344100D01*
Y7195215D01*
X10396400D01*
X10418016Y7199514D01*
X10436341Y7211759D01*
X10448585Y7230084D01*
X10450359Y7239000D01*
D02*
G37*
G36*
X10318700D02*
X10212441D01*
X10214215Y7230084D01*
X10226459Y7211759D01*
X10244784Y7199514D01*
X10266400Y7195215D01*
X10318700D01*
Y7239000D01*
D02*
G37*
G36*
X9150307Y7213600D02*
X9089718D01*
Y7137793D01*
X9150307D01*
Y7213600D01*
D02*
G37*
G36*
X11005100Y6833400D02*
X10947400D01*
Y6795700D01*
X11005100D01*
Y6833400D01*
D02*
G37*
G36*
X10922000D02*
X10864300D01*
Y6795700D01*
X10922000D01*
Y6833400D01*
D02*
G37*
G36*
X12042830Y7207600D02*
X12010970D01*
X11980196Y7199354D01*
X11952604Y7183424D01*
X11930076Y7160896D01*
X11914146Y7133304D01*
X11905900Y7102530D01*
Y7070670D01*
X11914146Y7039896D01*
X11930076Y7012304D01*
X11952604Y6989776D01*
X11962809Y6983884D01*
Y6970700D01*
X11805600D01*
Y6770700D01*
X11975600D01*
Y6806609D01*
X11988800D01*
X12013327Y6811487D01*
X12034119Y6825381D01*
X12072219Y6863481D01*
X12086113Y6884273D01*
X12090991Y6908800D01*
Y6983884D01*
X12101196Y6989776D01*
X12123724Y7012304D01*
X12139654Y7039896D01*
X12147900Y7070670D01*
Y7102530D01*
X12139654Y7133304D01*
X12123724Y7160896D01*
X12101196Y7183424D01*
X12073604Y7199354D01*
X12042830Y7207600D01*
D02*
G37*
G36*
X11005100Y6770300D02*
X10947400D01*
Y6732600D01*
X11005100D01*
Y6770300D01*
D02*
G37*
G36*
X10922000D02*
X10864300D01*
Y6732600D01*
X10922000D01*
Y6770300D01*
D02*
G37*
G36*
X8122000Y6813900D02*
X7880000D01*
Y6713113D01*
X7867300Y6711441D01*
X7859754Y6739604D01*
X7843824Y6767196D01*
X7821296Y6789724D01*
X7793704Y6805654D01*
X7762930Y6813900D01*
X7731070D01*
X7700296Y6805654D01*
X7672704Y6789724D01*
X7650176Y6767196D01*
X7634246Y6739604D01*
X7626000Y6708830D01*
Y6676970D01*
X7634246Y6646196D01*
X7650176Y6618604D01*
X7672704Y6596076D01*
X7700296Y6580146D01*
X7731070Y6571900D01*
X7762930D01*
X7793704Y6580146D01*
X7821296Y6596076D01*
X7843824Y6618604D01*
X7859754Y6646196D01*
X7867300Y6674359D01*
X7880000Y6672687D01*
Y6571900D01*
X8122000D01*
Y6813900D01*
D02*
G37*
G36*
X9023700Y6801200D02*
X8781700D01*
Y6700413D01*
X8769000Y6698741D01*
X8761454Y6726904D01*
X8745524Y6754496D01*
X8722996Y6777024D01*
X8695404Y6792954D01*
X8664630Y6801200D01*
X8632770D01*
X8601996Y6792954D01*
X8574404Y6777024D01*
X8551876Y6754496D01*
X8535946Y6726904D01*
X8527700Y6696130D01*
Y6664270D01*
X8535946Y6633496D01*
X8551876Y6605904D01*
X8574404Y6583376D01*
X8601996Y6567446D01*
X8632770Y6559200D01*
X8664630D01*
X8695404Y6567446D01*
X8722996Y6583376D01*
X8745524Y6605904D01*
X8761454Y6633496D01*
X8769000Y6661659D01*
X8781700Y6659987D01*
Y6559200D01*
X9023700D01*
Y6801200D01*
D02*
G37*
G36*
X9591730Y6826600D02*
X9559870D01*
X9529096Y6818354D01*
X9501504Y6802424D01*
X9478976Y6779896D01*
X9463046Y6752304D01*
X9454800Y6721530D01*
Y6689670D01*
X9463046Y6658896D01*
X9478976Y6631304D01*
X9501504Y6608776D01*
X9529096Y6592846D01*
X9557259Y6585300D01*
X9555587Y6572600D01*
X9454800D01*
Y6331541D01*
X9001749D01*
X8999524Y6335396D01*
X8976996Y6357924D01*
X8949404Y6373854D01*
X8918630Y6382100D01*
X8886770D01*
X8855996Y6373854D01*
X8828404Y6357924D01*
X8805876Y6335396D01*
X8789946Y6307804D01*
X8781700Y6277030D01*
Y6245170D01*
X8789946Y6214396D01*
X8805876Y6186804D01*
X8828404Y6164276D01*
X8855996Y6148346D01*
X8886770Y6140100D01*
X8918630D01*
X8949404Y6148346D01*
X8976996Y6164276D01*
X8999524Y6186804D01*
X9009082Y6203359D01*
X10086351D01*
X10088576Y6199504D01*
X10111104Y6176976D01*
X10138696Y6161046D01*
X10169470Y6152800D01*
X10201330D01*
X10232104Y6161046D01*
X10259696Y6176976D01*
X10282224Y6199504D01*
X10298154Y6227096D01*
X10306400Y6257870D01*
Y6289730D01*
X10298154Y6320504D01*
X10282224Y6348096D01*
X10259696Y6370624D01*
X10232104Y6386554D01*
X10201330Y6394800D01*
X10169470D01*
X10138696Y6386554D01*
X10111104Y6370624D01*
X10088576Y6348096D01*
X10079018Y6331541D01*
X9696800D01*
Y6572600D01*
X9596013D01*
X9594341Y6585300D01*
X9622504Y6592846D01*
X9650096Y6608776D01*
X9672624Y6631304D01*
X9688554Y6658896D01*
X9696800Y6689670D01*
Y6721530D01*
X9688554Y6752304D01*
X9672624Y6779896D01*
X9650096Y6802424D01*
X9622504Y6818354D01*
X9591730Y6826600D01*
D02*
G37*
G36*
X8334430Y7055200D02*
X8302570D01*
X8271796Y7046954D01*
X8244204Y7031024D01*
X8221676Y7008496D01*
X8205746Y6980904D01*
X8197500Y6950130D01*
Y6918270D01*
X8205746Y6887496D01*
X8221676Y6859904D01*
X8244204Y6837376D01*
X8254409Y6831484D01*
Y6769000D01*
X8211000D01*
Y6604000D01*
Y6439000D01*
X8231120D01*
X8236380Y6426300D01*
X8221676Y6411596D01*
X8205746Y6384004D01*
X8197500Y6353230D01*
Y6321370D01*
X8205746Y6290596D01*
X8221676Y6263004D01*
X8244204Y6240476D01*
X8271796Y6224546D01*
X8302570Y6216300D01*
X8334430D01*
X8365204Y6224546D01*
X8392796Y6240476D01*
X8415324Y6263004D01*
X8431254Y6290596D01*
X8439500Y6321370D01*
Y6353230D01*
X8431254Y6384004D01*
X8415324Y6411596D01*
X8400620Y6426300D01*
X8405880Y6439000D01*
X8426000D01*
Y6604000D01*
Y6769000D01*
X8382591D01*
Y6831484D01*
X8392796Y6837376D01*
X8415324Y6859904D01*
X8431254Y6887496D01*
X8439500Y6918270D01*
Y6950130D01*
X8431254Y6980904D01*
X8415324Y7008496D01*
X8392796Y7031024D01*
X8365204Y7046954D01*
X8334430Y7055200D01*
D02*
G37*
G36*
X11017600Y6051900D02*
X10775600D01*
Y5809900D01*
X10876387D01*
X10878059Y5797200D01*
X10849896Y5789654D01*
X10822304Y5773724D01*
X10799776Y5751196D01*
X10783846Y5723604D01*
X10775600Y5692830D01*
Y5660970D01*
X10783846Y5630196D01*
X10799776Y5602604D01*
X10822304Y5580076D01*
X10849896Y5564146D01*
X10880670Y5555900D01*
X10912530D01*
X10943304Y5564146D01*
X10970896Y5580076D01*
X10993424Y5602604D01*
X11009354Y5630196D01*
X11017600Y5660970D01*
Y5692830D01*
X11009354Y5723604D01*
X10993424Y5751196D01*
X10970896Y5773724D01*
X10943304Y5789654D01*
X10915141Y5797200D01*
X10916813Y5809900D01*
X11017600D01*
Y6051900D01*
D02*
G37*
G36*
X10226730D02*
X10194870D01*
X10164096Y6043654D01*
X10136504Y6027724D01*
X10113976Y6005196D01*
X10098046Y5977604D01*
X10089800Y5946830D01*
Y5914970D01*
X10098046Y5884196D01*
X10113976Y5856604D01*
X10136504Y5834076D01*
X10164096Y5818146D01*
X10192259Y5810600D01*
X10190587Y5797900D01*
X10089800D01*
Y5555900D01*
X10331800D01*
Y5797900D01*
X10231013D01*
X10229341Y5810600D01*
X10257504Y5818146D01*
X10285096Y5834076D01*
X10307624Y5856604D01*
X10323554Y5884196D01*
X10331800Y5914970D01*
Y5946830D01*
X10323554Y5977604D01*
X10307624Y6005196D01*
X10285096Y6027724D01*
X10257504Y6043654D01*
X10226730Y6051900D01*
D02*
G37*
G36*
X9579030D02*
X9547170D01*
X9516396Y6043654D01*
X9488804Y6027724D01*
X9466276Y6005196D01*
X9450346Y5977604D01*
X9442100Y5946830D01*
Y5914970D01*
X9450346Y5884196D01*
X9466276Y5856604D01*
X9488804Y5834076D01*
X9516396Y5818146D01*
X9544559Y5810600D01*
X9542887Y5797900D01*
X9442100D01*
Y5555900D01*
X9684100D01*
Y5797900D01*
X9583313D01*
X9581641Y5810600D01*
X9609804Y5818146D01*
X9637396Y5834076D01*
X9659924Y5856604D01*
X9675854Y5884196D01*
X9684100Y5914970D01*
Y5946830D01*
X9675854Y5977604D01*
X9659924Y6005196D01*
X9637396Y6027724D01*
X9609804Y6043654D01*
X9579030Y6051900D01*
D02*
G37*
G36*
X9099900D02*
X8857900D01*
Y5809900D01*
X8958687D01*
X8960359Y5797200D01*
X8932196Y5789654D01*
X8904604Y5773724D01*
X8882076Y5751196D01*
X8866146Y5723604D01*
X8857900Y5692830D01*
Y5660970D01*
X8866146Y5630196D01*
X8882076Y5602604D01*
X8904604Y5580076D01*
X8932196Y5564146D01*
X8962970Y5555900D01*
X8994830D01*
X9025604Y5564146D01*
X9053196Y5580076D01*
X9075724Y5602604D01*
X9091654Y5630196D01*
X9099900Y5660970D01*
Y5692830D01*
X9091654Y5723604D01*
X9075724Y5751196D01*
X9053196Y5773724D01*
X9025604Y5789654D01*
X8997441Y5797200D01*
X8999113Y5809900D01*
X9099900D01*
Y6051900D01*
D02*
G37*
G36*
X10513230Y4781900D02*
X10481370D01*
X10450596Y4773654D01*
X10423004Y4757724D01*
X10400476Y4735196D01*
X10384546Y4707604D01*
X10376300Y4676830D01*
Y4644970D01*
X10384546Y4614196D01*
X10400476Y4586604D01*
X10423004Y4564076D01*
X10450596Y4548146D01*
X10481370Y4539900D01*
X10513230D01*
X10544004Y4548146D01*
X10571596Y4564076D01*
X10594124Y4586604D01*
X10610054Y4614196D01*
X10618300Y4644970D01*
Y4676830D01*
X10610054Y4707604D01*
X10594124Y4735196D01*
X10571596Y4757724D01*
X10544004Y4773654D01*
X10513230Y4781900D01*
D02*
G37*
G36*
X10163230Y5391500D02*
X10131370D01*
X10100596Y5383254D01*
X10073004Y5367324D01*
X10050476Y5344796D01*
X10034546Y5317204D01*
X10026300Y5286430D01*
Y5254570D01*
X10034546Y5223796D01*
X10050476Y5196204D01*
X10073004Y5173676D01*
X10093568Y5161804D01*
Y4985496D01*
X10073004Y4973624D01*
X10050476Y4951096D01*
X10034546Y4923504D01*
X10026300Y4892730D01*
Y4860870D01*
X10034546Y4830096D01*
X10050476Y4802504D01*
X10059347Y4793633D01*
X10054487Y4781900D01*
X10026300D01*
Y4539900D01*
X10268300D01*
Y4781900D01*
X10240113D01*
X10235253Y4793633D01*
X10244124Y4802504D01*
X10260054Y4830096D01*
X10268300Y4860870D01*
Y4892730D01*
X10260054Y4923504D01*
X10244124Y4951096D01*
X10221596Y4973624D01*
X10201032Y4985496D01*
Y5161804D01*
X10221596Y5173676D01*
X10244124Y5196204D01*
X10260054Y5223796D01*
X10268300Y5254570D01*
Y5286430D01*
X10260054Y5317204D01*
X10244124Y5344796D01*
X10221596Y5367324D01*
X10194004Y5383254D01*
X10163230Y5391500D01*
D02*
G37*
G36*
X9706030Y4781900D02*
X9674170D01*
X9643396Y4773654D01*
X9615804Y4757724D01*
X9593276Y4735196D01*
X9577346Y4707604D01*
X9569100Y4676830D01*
Y4644970D01*
X9577346Y4614196D01*
X9593276Y4586604D01*
X9615804Y4564076D01*
X9643396Y4548146D01*
X9674170Y4539900D01*
X9706030D01*
X9736804Y4548146D01*
X9764396Y4564076D01*
X9786924Y4586604D01*
X9802854Y4614196D01*
X9811100Y4644970D01*
Y4676830D01*
X9802854Y4707604D01*
X9786924Y4735196D01*
X9764396Y4757724D01*
X9736804Y4773654D01*
X9706030Y4781900D01*
D02*
G37*
G36*
X9461100D02*
X9219100D01*
Y4539900D01*
X9461100D01*
Y4781900D01*
D02*
G37*
%LPD*%
G36*
X10936246Y8868696D02*
X10952176Y8841104D01*
X10974704Y8818576D01*
X11002296Y8802646D01*
X11033070Y8794400D01*
Y8782400D01*
X11002296Y8774154D01*
X10974704Y8758224D01*
X10952176Y8735696D01*
X10936246Y8708104D01*
X10928000Y8677330D01*
X10916000D01*
X10907754Y8708104D01*
X10891824Y8735696D01*
X10869296Y8758224D01*
X10841704Y8774154D01*
X10810930Y8782400D01*
Y8794400D01*
X10841704Y8802646D01*
X10869296Y8818576D01*
X10891824Y8841104D01*
X10907754Y8868696D01*
X10916000Y8899470D01*
X10928000D01*
X10936246Y8868696D01*
D02*
G37*
G36*
X10682246D02*
X10698176Y8841104D01*
X10720704Y8818576D01*
X10748296Y8802646D01*
X10779070Y8794400D01*
Y8782400D01*
X10748296Y8774154D01*
X10720704Y8758224D01*
X10698176Y8735696D01*
X10682246Y8708104D01*
X10674000Y8677330D01*
X10662000D01*
X10653754Y8708104D01*
X10637824Y8735696D01*
X10615296Y8758224D01*
X10587704Y8774154D01*
X10556930Y8782400D01*
Y8794400D01*
X10587704Y8802646D01*
X10615296Y8818576D01*
X10637824Y8841104D01*
X10653754Y8868696D01*
X10662000Y8899470D01*
X10674000D01*
X10682246Y8868696D01*
D02*
G37*
G36*
X10428246D02*
X10444176Y8841104D01*
X10466704Y8818576D01*
X10494296Y8802646D01*
X10525070Y8794400D01*
Y8782400D01*
X10494296Y8774154D01*
X10466704Y8758224D01*
X10444176Y8735696D01*
X10428246Y8708104D01*
X10420000Y8677330D01*
X10408000D01*
X10399754Y8708104D01*
X10383824Y8735696D01*
X10361296Y8758224D01*
X10333704Y8774154D01*
X10302930Y8782400D01*
Y8794400D01*
X10333704Y8802646D01*
X10361296Y8818576D01*
X10383824Y8841104D01*
X10399754Y8868696D01*
X10408000Y8899470D01*
X10420000D01*
X10428246Y8868696D01*
D02*
G37*
G36*
X10174246D02*
X10190176Y8841104D01*
X10212704Y8818576D01*
X10240296Y8802646D01*
X10271070Y8794400D01*
Y8782400D01*
X10240296Y8774154D01*
X10212704Y8758224D01*
X10190176Y8735696D01*
X10174246Y8708104D01*
X10166000Y8677330D01*
X10154000D01*
X10145754Y8708104D01*
X10129824Y8735696D01*
X10107296Y8758224D01*
X10079704Y8774154D01*
X10048930Y8782400D01*
Y8794400D01*
X10079704Y8802646D01*
X10107296Y8818576D01*
X10129824Y8841104D01*
X10145754Y8868696D01*
X10154000Y8899470D01*
X10166000D01*
X10174246Y8868696D01*
D02*
G37*
G36*
X9920246D02*
X9936176Y8841104D01*
X9958704Y8818576D01*
X9986296Y8802646D01*
X10017070Y8794400D01*
Y8782400D01*
X9986296Y8774154D01*
X9958704Y8758224D01*
X9936176Y8735696D01*
X9920246Y8708104D01*
X9912000Y8677330D01*
X9900000D01*
X9891754Y8708104D01*
X9875824Y8735696D01*
X9853296Y8758224D01*
X9825704Y8774154D01*
X9794930Y8782400D01*
Y8794400D01*
X9825704Y8802646D01*
X9853296Y8818576D01*
X9875824Y8841104D01*
X9891754Y8868696D01*
X9900000Y8899470D01*
X9912000D01*
X9920246Y8868696D01*
D02*
G37*
G36*
X9666246D02*
X9682176Y8841104D01*
X9704704Y8818576D01*
X9732296Y8802646D01*
X9763070Y8794400D01*
Y8782400D01*
X9732296Y8774154D01*
X9704704Y8758224D01*
X9682176Y8735696D01*
X9666246Y8708104D01*
X9658000Y8677330D01*
X9646000D01*
X9637754Y8708104D01*
X9621824Y8735696D01*
X9599296Y8758224D01*
X9571704Y8774154D01*
X9540930Y8782400D01*
Y8794400D01*
X9571704Y8802646D01*
X9599296Y8818576D01*
X9621824Y8841104D01*
X9637754Y8868696D01*
X9646000Y8899470D01*
X9658000D01*
X9666246Y8868696D01*
D02*
G37*
D10*
X7805886Y7669700D02*
D03*
D11*
Y7604700D02*
D03*
Y7539700D02*
D03*
Y7474700D02*
D03*
Y7409700D02*
D03*
Y7344700D02*
D03*
Y7279700D02*
D03*
Y7214700D02*
D03*
X8500914D02*
D03*
Y7344700D02*
D03*
Y7474700D02*
D03*
Y7539700D02*
D03*
Y7669700D02*
D03*
Y7279700D02*
D03*
Y7604700D02*
D03*
Y7409700D02*
D03*
D12*
X10331400Y7632700D02*
D03*
Y7505700D02*
D03*
Y7378700D02*
D03*
Y7251700D02*
D03*
X10801400Y7632700D02*
D03*
Y7505700D02*
D03*
Y7378700D02*
D03*
Y7251700D02*
D03*
D13*
X10605700Y7061200D02*
D03*
X10755700D02*
D03*
D14*
X8318500Y6686500D02*
D03*
Y6521500D02*
D03*
D15*
X8929600Y7797800D02*
D03*
X8799600D02*
D03*
X8799600Y7632700D02*
D03*
X8929600D02*
D03*
D16*
X10109200Y7405300D02*
D03*
Y7555300D02*
D03*
X10108000Y7062400D02*
D03*
Y7212400D02*
D03*
X10934700Y6783000D02*
D03*
Y6933000D02*
D03*
D17*
X11506200Y7064600D02*
D03*
Y6854600D02*
D03*
D18*
X11890600Y6870700D02*
D03*
X11680600D02*
D03*
D19*
X9792900Y7404100D02*
D03*
X9942900D02*
D03*
D20*
X10795000Y7839382D02*
D03*
Y7984818D02*
D03*
D21*
X10566400Y7837100D02*
D03*
Y7987100D02*
D03*
D22*
X8931582Y7226300D02*
D03*
X9077018D02*
D03*
D23*
X8929300Y7442200D02*
D03*
X9079300D02*
D03*
D24*
X7552258Y7344700D02*
X7805886D01*
X7548158Y7340600D02*
X7552258Y7344700D01*
X7384300Y7409700D02*
X7805886D01*
X7382147Y7407547D02*
X7384300Y7409700D01*
X8701542Y7632700D02*
X8799600D01*
X8673542Y7604700D02*
X8701542Y7632700D01*
X8500914Y7409700D02*
Y7474700D01*
Y7539700D01*
Y7604700D02*
X8673542D01*
X7524000Y7474700D02*
X7805886D01*
X7518400Y7480300D02*
X7524000Y7474700D01*
X10934700Y6933000D02*
Y7058200D01*
X10801400Y7505700D02*
X10972800D01*
X11010900Y7543800D02*
Y7823200D01*
X10972800Y7505700D02*
X11010900Y7543800D01*
Y7823200D02*
X11061700Y7874000D01*
X11226800D01*
X10147300Y4876800D02*
Y5270500D01*
X11226800Y4483100D02*
Y7061200D01*
X8928100Y7222818D02*
X8931582Y7226300D01*
X8928100Y7124700D02*
Y7222818D01*
Y7124700D02*
X8990400Y7062400D01*
X10108000D01*
X10604500D01*
X10605700Y7061200D01*
X11189836Y7467600D02*
X11226800D01*
X10515600Y5727700D02*
Y6324600D01*
X10566400Y6375400D02*
X11023600D01*
X10515600Y6324600D02*
X10566400Y6375400D01*
X11074400Y6426200D02*
Y7327900D01*
X11023600Y6375400D02*
X11074400Y6426200D01*
X10801400Y7378700D02*
X11023600D01*
X11074400Y7327900D01*
X10934700Y7058200D02*
Y7183400D01*
X10755700Y7061200D02*
X10931700D01*
X10934700Y7058200D01*
X10866400Y7251700D02*
X10934700Y7183400D01*
X10801400Y7251700D02*
X10866400D01*
X10604500Y7062400D02*
Y7581900D01*
X10655300Y7632700D02*
X10801400D01*
X10604500Y7581900D02*
X10655300Y7632700D01*
X10795000Y7839382D02*
X10801400Y7832982D01*
Y7632700D02*
Y7832982D01*
X10566400Y7837100D02*
X10792718D01*
X10795000Y7839382D01*
X10202900Y7696200D02*
X10266400Y7632700D01*
X10331400D01*
X10155620Y7696200D02*
X10202900D01*
X10331400Y7505700D02*
Y7632700D01*
X10155800Y7378700D02*
X10331400D01*
X10129200Y7405300D02*
X10155800Y7378700D01*
X10109200Y7405300D02*
X10129200D01*
X8500914Y7669700D02*
X8593400D01*
X7805886Y7214700D02*
X8103700D01*
X8500914Y7279700D02*
Y7344700D01*
Y7214700D02*
Y7279700D01*
D25*
X7495179Y7287621D02*
X7548158Y7340600D01*
X7493000Y7264400D02*
X7495179Y7266579D01*
Y7287621D01*
X7315200Y7340600D02*
X7382147Y7407547D01*
X7480300Y7518400D02*
X7518400Y7480300D01*
X7480300Y7518400D02*
Y7848600D01*
X9334500Y4655300D02*
X9340100Y4660900D01*
X10147300D02*
X10172700Y4686300D01*
X8343900Y7982235D02*
Y8013700D01*
X8318500Y7956835D02*
X8343900Y7982235D01*
X8103700Y7214700D02*
X8166100Y7277100D01*
X7467600Y7861300D02*
X7480300Y7848600D01*
X8775700Y8309960D02*
X8787650Y8298010D01*
Y7809750D02*
Y8298010D01*
X8166100Y7277100D02*
Y8178800D01*
X8153400Y8191500D02*
X8166100Y8178800D01*
X7315200Y5410200D02*
X7416800Y5308600D01*
X9791700D01*
X8902700Y6261100D02*
X8909050Y6267450D01*
X10179050D02*
X10185400Y6273800D01*
X8909050Y6267450D02*
X10179050D01*
X11506200Y5689600D02*
Y6854600D01*
X11522300Y6870700D01*
X11226800Y7061200D02*
X11228500Y7062900D01*
X10108000Y7212400D02*
X10109200Y7213600D01*
Y7405300D01*
X8929600Y7632700D02*
Y8456700D01*
X8787650Y7809750D02*
X8799600Y7797800D01*
X9842500Y7696200D02*
X10155620D01*
X9588500Y7404100D02*
X9792900D01*
X11228500Y7062900D02*
X11504500D01*
X11506200Y7064600D01*
X8318500Y6521500D02*
X8343500D01*
X8318500Y6337300D02*
Y6521500D01*
X12026900Y6908800D02*
Y7086600D01*
X8318500Y6686500D02*
Y6934200D01*
X10517779Y8964021D02*
X10541000Y8940800D01*
X9550400Y6426200D02*
X9575800Y6451600D01*
X11890600Y6870700D02*
X11988800D01*
X12026900Y6908800D01*
X8312100Y6692900D02*
X8318500Y6686500D01*
X7315200Y5410200D02*
Y7340600D01*
X9942900Y7404100D02*
X9944100Y7405300D01*
X10109200D01*
X11709400Y7467600D02*
X11772900Y7531100D01*
X10088000Y7212400D02*
X10108000D01*
X8929600Y7558000D02*
Y7632700D01*
X11223250Y7471150D02*
X11226800Y7467600D01*
X11522300Y6870700D02*
X11680600D01*
D26*
X8318500Y7664539D02*
X8375469Y7607570D01*
X8498044D01*
X8593400Y7669700D02*
X8721500Y7797800D01*
X8500914Y7279700D02*
X8753700D01*
X8498044Y7607570D02*
X8500914Y7604700D01*
X8318500Y7664539D02*
Y7956835D01*
X8753700Y7279700D02*
X8807100Y7226300D01*
X8721500Y7797800D02*
X8799600D01*
D27*
X9766300Y8022240D02*
Y8373029D01*
X8807100Y7226300D02*
X8931582D01*
X8929300Y7557700D02*
X8929600Y7558000D01*
X8929300Y7442200D02*
Y7557700D01*
X8931582Y7226300D02*
Y7439918D01*
X8929300Y7442200D02*
X8931582Y7439918D01*
D28*
X9690100Y4660900D02*
D03*
X10497300D02*
D03*
X10287000Y8915400D02*
D03*
X10033000D02*
D03*
X9779000D02*
D03*
X9525000D02*
D03*
X9271000D02*
D03*
X9017000D02*
D03*
Y8661400D02*
D03*
X9271000D02*
D03*
X9525000D02*
D03*
X9779000D02*
D03*
X10287000D02*
D03*
X10033000D02*
D03*
X8763000D02*
D03*
X10795000Y8915400D02*
D03*
X11049000D02*
D03*
X10541000D02*
D03*
Y8661400D02*
D03*
X11049000D02*
D03*
X10795000D02*
D03*
X8978900Y5676900D02*
D03*
X9563100Y5930900D02*
D03*
X9575800Y6705600D02*
D03*
X11226800Y7467600D02*
D03*
X12026900Y7531100D02*
D03*
X8648700Y6680200D02*
D03*
X7747000Y6692900D02*
D03*
X10210800Y5930900D02*
D03*
X10896600Y5676900D02*
D03*
D29*
X9340100Y4660900D02*
D03*
X10147300D02*
D03*
X8763000Y8915400D02*
D03*
X11480800Y7467600D02*
D03*
X11772900Y7531100D02*
D03*
X8902700Y6680200D02*
D03*
X8001000Y6692900D02*
D03*
D30*
X8978900Y5930900D02*
D03*
X9563100Y5676900D02*
D03*
X9575800Y6451600D02*
D03*
X10210800Y5676900D02*
D03*
X10896600Y5930900D02*
D03*
D31*
X11226800Y7874000D02*
D03*
X10147300Y4876800D02*
D03*
X11226800Y4483100D02*
D03*
X7467600Y7861300D02*
D03*
X7493000Y7251700D02*
D03*
X8343900Y8013700D02*
D03*
X9766300Y8022240D02*
D03*
Y8373029D02*
D03*
X8775700Y8309960D02*
D03*
X8153400Y8191500D02*
D03*
X8902700Y6261100D02*
D03*
X11506200Y6273800D02*
D03*
X10185400D02*
D03*
X11506200Y5689600D02*
D03*
X9842500Y7696200D02*
D03*
X9588500Y7404100D02*
D03*
X11226800Y7061200D02*
D03*
X8318500Y6337300D02*
D03*
X12026900Y7086600D02*
D03*
X10147300Y5270500D02*
D03*
X10515600Y5727700D02*
D03*
X9791700Y5308600D02*
D03*
X8318500Y6934200D02*
D03*
X8928100Y8458200D02*
D03*
%TF.MD5,4f4becda18590b9ab84c4c13e6b094ed*%
M02*
